# This file uses centimeters as units for non-parametric coordinates.

g default
v -2500.000000 0.000000 2500.000000
v -2250.000000 0.000000 2500.000000
v -2000.000244 0.000000 2500.000000
v -1749.999756 0.000000 2500.000000
v -1500.000000 0.000000 2500.000000
v -1250.000000 0.000000 2500.000000
v -1000.000000 0.000000 2500.000000
v -750.000000 0.000000 2500.000000
v -500.000000 0.000000 2500.000000
v -249.999924 0.000000 2500.000000
v 0.000000 0.000000 2500.000000
v 250.000076 0.000000 2500.000000
v 500.000153 0.000000 2500.000000
v 750.000122 0.000000 2500.000000
v 1000.000000 0.000000 2500.000000
v 1250.000000 0.000000 2500.000000
v 1500.000000 0.000000 2500.000000
v 1750.000000 0.000000 2500.000000
v 2000.000244 0.000000 2500.000000
v 2250.000000 0.000000 2500.000000
v 2500.000000 0.000000 2500.000000
v -2500.000000 0.000000 -203.902512
v -2250.000000 0.000000 -391.304657
v -2000.000244 0.000000 -444.715057
v -1749.999756 0.000000 -598.184448
v -1500.000000 0.000000 -517.384277
v -1250.000000 0.000000 -345.229034
v -1000.000000 0.000000 -293.822235
v -750.000000 0.000000 -109.309364
v -500.000000 0.000000 -92.751396
v -249.999924 0.000000 -132.259384
v 0.000000 0.000000 -22.177532
v 250.000076 0.000000 1.527810
v 500.000153 0.000000 -90.693420
v 750.000122 0.000000 -107.549515
v 1000.000000 0.000000 -237.236435
v 1250.000000 0.000000 -199.398804
v 1500.000000 0.000000 -370.023529
v 1750.000000 0.000000 -439.780731
v 2000.000244 0.000000 -412.859589
v 2250.000000 0.000000 -537.981445
v 2500.000000 0.000000 -427.019928
v -2500.000000 -230.106171 -445.778687
v -2250.000000 -230.106171 -633.180847
v -2000.000244 -230.106171 -686.591187
v -1749.999756 -230.106171 -840.060608
v -1500.000000 -230.106171 -759.260376
v -1250.000000 -230.106171 -587.105225
v -1000.000000 -230.106125 -535.698364
v -750.000000 -230.106171 -351.185486
v -500.000000 -230.106171 -334.627563
v -249.999924 -230.106171 -374.135468
v 0.000000 -230.106171 -264.053650
v 250.000076 -230.106171 -240.348312
v 500.000153 -230.106171 -332.569550
v 750.000122 -230.106171 -349.425659
v 1000.000000 -230.106171 -479.112518
v 1250.000000 -230.106171 -441.274933
v 1500.000000 -230.106171 -611.899658
v 1750.000000 -230.106171 -681.656799
v 2000.000244 -230.106125 -654.735718
v 2250.000000 -230.106171 -779.857544
v 2500.000000 -230.106171 -668.896057
v -2500.000000 -230.106171 -2378.792480
v -2250.000000 -230.106171 -2378.794189
v -2000.000244 -230.106171 -2378.794922
v -1749.999756 -230.106171 -2378.796387
v -1500.000000 -230.106171 -2378.795166
v -1250.000000 -230.106171 -2378.793701
v -1000.000000 -230.106125 -2378.793213
v -750.000000 -230.106171 -2378.791504
v -500.000000 -230.106171 -2378.791260
v -249.999924 -230.106171 -2378.791504
v 0.000000 -230.106171 -2378.790527
v 250.000076 -230.106171 -2378.790039
v 500.000153 -230.106171 -2378.791260
v 750.000122 -230.106171 -2378.791504
v 1000.000000 -230.106171 -2378.792725
v 1250.000000 -230.106171 -2378.792236
v 1500.000000 -230.106171 -2378.794189
v 1750.000000 -230.106171 -2378.794434
v 2000.000244 -230.106125 -2378.794434
v 2250.000000 -230.106171 -2378.795654
v 2500.000000 -230.106171 -2378.794678
vt 0.002931 0.006844
vt 0.053219 0.006844
vt 0.103307 0.006844
vt 0.154161 0.006844
vt 0.203757 0.006844
vt 0.253269 0.006844
vt 0.302709 0.006844
vt 0.352635 0.006844
vt 0.402381 0.006844
vt 0.452018 0.006844
vt 0.501509 0.006844
vt 0.551046 0.006844
vt 0.600438 0.006844
vt 0.649748 0.006844
vt 0.699528 0.006844
vt 0.749095 0.006844
vt 0.799137 0.006844
vt 0.848815 0.006844
vt 0.898217 0.006844
vt 0.947555 0.006844
vt 0.996971 0.006844
vt 0.002931 0.543872
vt 0.053219 0.580377
vt 0.103307 0.591840
vt 0.154161 0.620628
vt 0.203757 0.605903
vt 0.253269 0.573820
vt 0.302709 0.563390
vt 0.352635 0.528664
vt 0.402381 0.525073
vt 0.452018 0.531791
vt 0.501509 0.511538
vt 0.551046 0.507400
vt 0.600438 0.524565
vt 0.649748 0.528374
vt 0.699528 0.552778
vt 0.749094 0.546964
vt 0.799137 0.579037
vt 0.848815 0.592479
vt 0.898217 0.588172
vt 0.947554 0.611069
vt 0.996971 0.590648
vt 0.053219 0.647285
vt 0.002931 0.611120
vt 0.103307 0.658513
vt 0.154161 0.687117
vt 0.203757 0.672535
vt 0.253269 0.640486
vt 0.302709 0.629961
vt 0.352635 0.595616
vt 0.402381 0.591816
vt 0.452018 0.598512
vt 0.501509 0.578411
vt 0.551046 0.574092
vt 0.600438 0.591232
vt 0.649748 0.595174
vt 0.699528 0.619510
vt 0.749094 0.613783
vt 0.799137 0.645719
vt 0.848815 0.659258
vt 0.898217 0.655195
vt 0.947554 0.678059
vt 0.996971 0.658077
vt 0.053219 0.997069
vt 0.002931 0.997069
vt 0.103307 0.997069
vt 0.154161 0.997069
vt 0.203757 0.997069
vt 0.253269 0.997069
vt 0.302709 0.997069
vt 0.352635 0.997069
vt 0.402381 0.997069
vt 0.452018 0.997069
vt 0.501509 0.997069
vt 0.551046 0.997069
vt 0.600438 0.997069
vt 0.649748 0.997069
vt 0.699528 0.997069
vt 0.749094 0.997069
vt 0.799137 0.997069
vt 0.848815 0.997069
vt 0.898217 0.997069
vt 0.947554 0.997069
vt 0.996971 0.997069
vn 0.000000 1.000000 0.000000
vn 0.000000 1.000000 0.000000
vn 0.000000 1.000000 0.000000
vn 0.000000 1.000000 0.000000
vn 0.000000 1.000000 0.000000
vn 0.000000 1.000000 0.000000
vn 0.000000 1.000000 0.000000
vn 0.000000 1.000000 0.000000
vn 0.000000 1.000000 0.000000
vn 0.000000 1.000000 0.000000
vn 0.000000 1.000000 0.000000
vn 0.000000 1.000000 0.000000
vn 0.000000 1.000000 0.000000
vn 0.000000 1.000000 0.000000
vn 0.000000 1.000000 0.000000
vn 0.000000 1.000000 0.000000
vn 0.000000 1.000000 0.000000
vn 0.000000 1.000000 0.000000
vn 0.000000 1.000000 0.000000
vn 0.000000 1.000000 0.000000
vn 0.000000 1.000000 0.000000
vn 0.000000 1.000000 0.000000
vn 0.000000 1.000000 0.000000
vn 0.000000 1.000000 0.000000
vn 0.000000 1.000000 0.000000
vn 0.000000 1.000000 0.000000
vn 0.000000 1.000000 0.000000
vn 0.000000 1.000000 0.000000
vn 0.000000 1.000000 0.000000
vn 0.000000 1.000000 0.000000
vn 0.000000 1.000000 0.000000
vn 0.000000 1.000000 0.000000
vn 0.000000 1.000000 0.000000
vn 0.000000 1.000000 0.000000
vn 0.000000 1.000000 0.000000
vn 0.000000 1.000000 0.000000
vn 0.000000 1.000000 0.000000
vn 0.000000 1.000000 0.000000
vn 0.000000 1.000000 0.000000
vn 0.000000 1.000000 0.000000
vn 0.000000 1.000000 0.000000
vn 0.000000 1.000000 0.000000
vn -0.459025 0.643676 -0.612354
vn -0.342269 0.680756 -0.647629
vn -0.281089 0.695304 -0.661469
vn -0.459025 0.643676 -0.612354
vn -0.251191 0.701285 -0.667160
vn -0.293711 0.692559 -0.658859
vn -0.389674 0.667244 -0.634775
vn -0.389674 0.667244 -0.634775
vn 0.217439 0.707180 -0.672768
vn 0.349595 0.678799 -0.645768
vn 0.305611 0.689852 -0.656283
vn 0.217439 0.707180 -0.672768
vn 0.265218 0.698569 -0.664576
vn 0.318445 0.686798 -0.653377
vn 0.336013 0.682390 -0.649184
vn 0.275923 0.696389 -0.662502
vn 0.453413 0.645761 -0.614337
vn 0.453413 0.645761 -0.614337
vn 0.045603 0.723761 -0.688542
vn -0.029927 0.724190 -0.688950
vn -0.033150 0.724117 -0.688880
vn 0.045603 0.723761 -0.688542
vn -0.108284 0.720255 -0.685206
vn -0.108284 0.720255 -0.685206
vn 0.290419 0.693288 -0.659552
vn 0.167138 0.714323 -0.679564
vn 0.193585 0.710810 -0.676221
vn 0.290419 0.693288 -0.659552
vn -0.083671 0.721974 -0.686842
vn -0.102445 0.720703 -0.685633
vn -0.157748 0.715444 -0.680629
vn -0.138332 0.717549 -0.682633
vn -0.177905 0.712957 -0.678264
vn -0.214519 0.707648 -0.673213
vn -0.336678 0.682217 -0.649020
vn -0.336678 0.682217 -0.649020
vn 0.103757 0.720604 -0.685539
vn 0.103757 0.720604 -0.685539
vn 0.103757 0.720604 -0.685539
vn 0.103757 0.720604 -0.685539
vn -0.425671 0.655597 -0.623695
vn -0.336087 0.682371 -0.649166
vn -0.289080 0.693582 -0.659831
vn -0.425671 0.655597 -0.623695
vn -0.063539 0.723051 -0.687867
vn -0.053475 0.723478 -0.688273
vn 0.074019 0.722527 -0.687369
vn 0.074019 0.722527 -0.687369
vn -0.326107 0.684908 -0.651579
vn -0.326107 0.684908 -0.651579
vn -0.326107 0.684908 -0.651579
vn -0.326107 0.684908 -0.651579
vn 0.292542 0.692819 -0.659106
vn 0.292542 0.692819 -0.659106
vn 0.292542 0.692819 -0.659106
vn 0.292542 0.692819 -0.659106
vn 0.000000 1.000000 0.000000
vn 0.000000 1.000000 0.000000
vn 0.000000 1.000000 0.000000
vn 0.000000 1.000000 0.000000
vn 0.000000 1.000000 0.000000
vn 0.000000 1.000000 0.000000
vn 0.000000 1.000000 0.000000
vn 0.000000 1.000000 0.000000
vn 0.000000 1.000000 0.000000
vn 0.000000 1.000000 0.000000
vn 0.000000 1.000000 0.000000
vn 0.000000 1.000000 0.000000
vn 0.000000 1.000000 0.000000
vn 0.000000 1.000000 0.000000
vn 0.000000 1.000000 0.000000
vn 0.000000 1.000000 0.000000
vn 0.000000 1.000000 0.000000
vn 0.000000 1.000000 0.000000
vn 0.000000 1.000000 0.000000
vn 0.000000 1.000000 0.000000
vn -0.000000 1.000000 0.000000
vn -0.000000 1.000000 0.000000
vn -0.000000 1.000000 0.000000
vn -0.000000 1.000000 0.000000
vn 0.000000 1.000000 0.000000
vn 0.000000 1.000000 0.000000
vn 0.000000 1.000000 0.000000
vn 0.000000 1.000000 0.000000
vn 0.000000 1.000000 0.000000
vn 0.000000 1.000000 0.000000
vn 0.000000 1.000000 0.000000
vn 0.000000 1.000000 0.000000
vn 0.000000 1.000000 0.000000
vn 0.000000 1.000000 0.000000
vn 0.000000 1.000000 0.000000
vn 0.000000 1.000000 0.000000
vn 0.000000 1.000000 0.000000
vn 0.000000 1.000000 0.000000
vn 0.000000 1.000000 0.000000
vn 0.000000 1.000000 0.000000
vn 0.000000 1.000000 0.000000
vn 0.000000 1.000000 0.000000
vn 0.000000 1.000000 0.000000
vn 0.000000 1.000000 0.000000
vn 0.000000 1.000000 0.000000
vn 0.000000 1.000000 0.000000
vn 0.000000 1.000000 0.000000
vn 0.000000 1.000000 0.000000
vn 0.000000 1.000000 0.000000
vn 0.000000 1.000000 0.000000
vn 0.000000 1.000000 0.000000
vn 0.000000 1.000000 0.000000
vn 0.000000 1.000000 0.000000
vn 0.000000 1.000000 0.000000
vn 0.000000 1.000000 0.000000
vn 0.000000 1.000000 0.000000
vn 0.000000 1.000000 0.000000
vn 0.000000 1.000000 0.000000
vn 0.000000 1.000000 0.000000
vn 0.000000 1.000000 0.000000
vn 0.000000 1.000000 0.000000
vn 0.000000 1.000000 0.000000
vn 0.000000 1.000000 0.000000
vn 0.000000 1.000000 0.000000
vn 0.000000 1.000000 0.000000
vn 0.000000 1.000000 0.000000
vn 0.000000 1.000000 0.000000
vn 0.000000 1.000000 0.000000
vn -0.000000 1.000000 0.000000
vn -0.000000 1.000000 0.000000
vn -0.000000 1.000000 0.000000
vn -0.000000 1.000000 0.000000
vn 0.000000 1.000000 0.000000
vn 0.000000 1.000000 0.000000
vn 0.000000 1.000000 0.000000
vn 0.000000 1.000000 0.000000
vn 0.000000 1.000000 0.000000
vn 0.000000 1.000000 0.000000
vn 0.000000 1.000000 0.000000
vn 0.000000 1.000000 0.000000
s 1
g pPlane1
f 2/2/1 23/23/2 22/22/3 1/1/4
f 3/3/5 24/24/6 23/23/2 2/2/1
f 4/4/7 25/25/8 24/24/6 3/3/5
f 5/5/9 26/26/10 25/25/8 4/4/7
f 6/6/11 27/27/12 26/26/10 5/5/9
f 7/7/13 28/28/14 27/27/12 6/6/11
f 8/8/15 29/29/16 28/28/14 7/7/13
f 9/9/17 30/30/18 29/29/16 8/8/15
f 10/10/19 31/31/20 30/30/18 9/9/17
f 11/11/21 32/32/22 31/31/20 10/10/19
f 12/12/23 33/33/24 32/32/22 11/11/21
f 13/13/25 34/34/26 33/33/24 12/12/23
f 14/14/27 35/35/28 34/34/26 13/13/25
f 15/15/29 36/36/30 35/35/28 14/14/27
f 16/16/31 37/37/32 36/36/30 15/15/29
f 17/17/33 38/38/34 37/37/32 16/16/31
f 18/18/35 39/39/36 38/38/34 17/17/33
f 19/19/37 40/40/38 39/39/36 18/18/35
f 20/20/39 41/41/40 40/40/38 19/19/37
f 21/21/41 42/42/42 41/41/40 20/20/39
s 2
f 22/22/43 23/23/44 44/43/45 43/44/46
f 23/23/44 24/24/47 45/45/48 44/43/45
f 24/24/47 25/25/49 46/46/50 45/45/48
s 3
f 25/25/51 26/26/52 47/47/53 46/46/54
f 26/26/52 27/27/55 48/48/56 47/47/53
f 27/27/55 28/28/57 49/49/58 48/48/56
f 28/28/57 29/29/59 50/50/60 49/49/58
s 4
f 29/29/61 30/30/62 51/51/63 50/50/64
f 30/30/62 31/31/65 52/52/66 51/51/63
s 5
f 31/31/67 32/32/68 53/53/69 52/52/70
f 32/32/68 33/33/71 54/54/72 53/53/69
f 33/33/71 34/34/73 55/55/74 54/54/72
f 34/34/73 35/35/75 56/56/76 55/55/74
f 35/35/75 36/36/77 57/57/78 56/56/76
s off
f 36/36/79 37/37/80 58/58/81 57/57/82
s 6
f 37/37/83 38/38/84 59/59/85 58/58/86
f 38/38/84 39/39/87 60/60/88 59/59/85
f 39/39/87 40/40/89 61/61/90 60/60/88
s off
f 40/40/91 41/41/92 62/62/93 61/61/94
f 41/41/95 42/42/96 63/63/97 62/62/98
f 43/44/99 44/43/100 65/64/101 64/65/102
f 44/43/103 45/45/104 66/66/105 65/64/106
f 45/45/107 46/46/108 67/67/109 66/66/110
f 46/46/111 47/47/112 68/68/113 67/67/114
f 47/47/115 48/48/116 69/69/117 68/68/118
f 48/48/119 49/49/120 70/70/121 69/69/122
f 49/49/123 50/50/124 71/71/125 70/70/126
f 50/50/127 51/51/128 72/72/129 71/71/130
f 51/51/131 52/52/132 73/73/133 72/72/134
f 52/52/135 53/53/136 74/74/137 73/73/138
f 53/53/139 54/54/140 75/75/141 74/74/142
f 54/54/143 55/55/144 76/76/145 75/75/146
f 55/55/147 56/56/148 77/77/149 76/76/150
f 56/56/151 57/57/152 78/78/153 77/77/154
f 57/57/155 58/58/156 79/79/157 78/78/158
f 58/58/159 59/59/160 80/80/161 79/79/162
f 59/59/163 60/60/164 81/81/165 80/80/166
f 60/60/167 61/61/168 82/82/169 81/81/170
f 61/61/171 62/62/172 83/83/173 82/82/174
f 62/62/175 63/63/176 84/84/177 83/83/178
