# This file uses millimeters as units for non-parametric coordinates.

mtllib rock_MESH.mtl
g default
v 4.833238 4.652629 -3.551182
v 4.520242 5.116275 5.741068
v 4.106325 9.755689 5.385601
v 4.054018 9.295385 -3.281534
v 3.569421 12.355209 -2.863494
v 3.618237 12.749479 3.130590
v 1.944872 16.126703 1.918700
v 3.076875 13.189623 3.990240
v 3.159068 10.007298 6.252930
v 1.489076 7.457612 7.769537
v -2.754135 12.724728 4.401884
v -3.077813 9.582873 6.498615
v -2.163899 7.696467 7.611877
v -1.952356 15.493179 2.280486
v 3.015349 14.860329 -1.524736
v 3.189120 14.919452 1.281112
v 3.503497 9.179636 -3.840907
v 4.200419 4.709711 -4.171552
v -4.618024 5.641258 -4.107778
v -3.649292 9.437504 -3.845097
v -2.883930 12.786880 -3.528990
v 3.096075 12.374035 -3.535958
v -2.181550 14.902063 -3.218583
v 2.272964 15.013904 -3.270115
v -2.552742 14.979107 -2.580333
v -3.115264 12.803782 -3.250235
v -3.359123 12.512719 3.815085
v -2.481918 15.268293 1.994380
v -3.999825 9.486619 -3.596356
v -4.149443 9.394098 5.576220
v -4.885537 5.710713 -3.906053
v -5.111474 5.244853 5.302747
v -0.829541 5.245795 -4.201282
v -0.576440 9.327650 -3.854431
v -0.314935 12.613552 -3.575217
v -0.111683 15.801686 -3.129008
v -0.443263 7.692668 7.846189
v -0.022636 9.831594 6.439074
v 0.102476 12.972363 4.228177
v 0.189532 16.099731 2.015392
v -2.396298 15.869586 0.943351
v -2.083717 15.565504 -2.442201
v -0.061154 16.126709 -2.353857
v 2.299204 15.506224 -2.468891
v -1.862647 16.109900 1.203040
v 0.117521 16.600281 1.007844
v 2.041859 16.091778 0.918093
v -5.701590 3.382488 3.760357
v -5.390733 3.283201 -3.610421
v -4.763509 3.160976 -4.246833
v -1.034850 2.279245 -4.453364
v 2.572020 1.717391 -4.444762
v 5.253067 2.477344 -1.985453
v 5.302509 2.932299 4.026053
v -3.198209 3.647317 5.442112
v 0.168466 3.564745 6.055867
v 2.700153 3.582968 5.738393
v -3.461002 0.064953 3.268687
v -2.115863 0.051280 4.199288
v 0.077552 0.152103 4.620173
v 1.841590 0.078551 4.375269
v 2.986950 0.131403 3.834502
v 3.304110 0.108506 -0.887017
v -2.104360 0.023964 -3.515759
v -3.918648 0.026683 0.705882
v 4.397917 1.320700 -1.468602
v 4.231376 1.608471 3.946187
v 2.294345 1.946940 5.088117
v 0.126032 1.968383 5.378265
v -2.681206 1.975098 4.834478
v -5.858014 2.379935 -1.300439
v -3.328306 1.322538 -4.242958
v -0.563508 0.217535 -4.284360
v -0.593676 -0.000447 -3.820027
v 1.604579 0.783355 -4.549023
v 1.406590 0.043216 -3.509921
v 0.228295 0.005447 0.303508
v -0.064272 0.012993 3.325297
vt 0.586073 0.875016
vt 0.512087 0.784559
vt 0.689886 0.628758
vt 0.763345 0.729017
vt 0.679587 0.903945
vt 0.801296 0.801212
vt 0.182377 0.784438
vt 0.106042 0.848489
vt 0.066420 0.785107
vt 0.113699 0.410617
vt 0.227195 0.735632
vt 0.120392 0.477224
vt 0.957342 0.074330
vt 0.920851 0.026996
vt 0.752893 0.919848
vt 0.811708 0.876365
vt 0.651963 0.342287
vt 0.731985 0.272470
vt 0.804193 0.350795
vt 0.707024 0.612950
vt 0.797390 0.217597
vt 0.856400 0.284444
vt 0.858390 0.165256
vt 0.891000 0.220004
vt 0.668570 0.931201
vt 0.228711 0.853216
vt 0.763565 0.966319
vt 0.262982 0.770999
vt 0.110822 0.303158
vt 0.086403 0.217662
vt 0.093542 0.186929
vt 0.170317 0.132680
vt 0.226902 0.157295
vt 0.144616 0.391461
vt 0.300567 0.208661
vt 0.231937 0.453053
vt 0.381337 0.273256
vt 0.181173 0.116812
vt 0.231838 0.149283
vt 0.307208 0.199605
vt 0.589337 0.265135
vt 0.077253 0.182458
vt 0.936547 0.094016
vt 0.873530 0.151699
vt 0.153630 0.121731
vt 0.846636 0.879391
vt 0.785035 0.949037
vt 0.292256 0.455412
vt 0.420783 0.327538
vt 0.540221 0.307946
vt 0.593558 0.392529
vt 0.647199 0.523302
vt 0.622653 0.613226
vt 0.515942 0.713787
vt 0.248960 0.518143
vt 0.325362 0.672699
vt 0.371011 0.721075
vt 0.300363 0.543623
vt 0.365972 0.519150
vt 0.364909 0.558949
vt 0.358643 0.642803
vt 0.396055 0.609110
vt 0.399142 0.683127
vt 0.431241 0.639950
vt 0.460686 0.647391
vt 0.488796 0.684598
vt 0.591247 0.592782
vt 0.554934 0.571536
vt 0.396824 0.384997
vt 0.532229 0.368045
vt 0.522687 0.416828
vt 0.411824 0.470660
vt 0.554634 0.445353
vt 0.564686 0.437739
vt 0.613927 0.470567
vt 0.586676 0.492051
vt 0.485212 0.533784
vt 0.418522 0.584353
vt 0.624497 0.490726
vt 0.648730 0.471032
vt 0.495205 0.364988
vt 0.440849 0.318389
vt 0.315048 0.581979
vt 0.271008 0.601781
vt 0.434872 0.704887
vt 0.450541 0.759983
vt 0.472712 0.887423
vt 0.198333 0.700987
vt 0.733805 0.445969
vt 0.388213 0.267406
vt 0.971687 0.132644
vt 0.910276 0.202343
vt 0.901764 0.053207
vt 0.069733 0.217013
vt 0.857286 0.856463
vt 0.829557 0.120728
vt 0.055826 0.948897
vt 0.807840 0.139316
vt 0.820416 0.791704
vt 0.754537 0.165807
vt 0.778958 0.715496
vt 0.677864 0.213319
vt 0.089027 0.310318
vt 0.138664 0.717717
vt 0.566375 0.902015
vt 0.147464 0.914294
vt 0.029195 0.911760
vt 0.007964 0.857489
vt 0.987751 0.110949
vn 0.973611 0.156296 0.166289
vn 0.959735 0.043776 0.277474
vn 0.986260 0.097891 -0.133072
vn 0.987968 0.141797 -0.061755
vn 0.970845 0.229562 0.068997
vn 0.976300 0.189886 -0.103832
vn 0.004463 0.552526 0.833483
vn 0.000535 0.579468 0.814995
vn -0.193627 0.585908 0.786906
vn -0.373462 0.410818 0.831718
vn -0.049450 -0.070095 0.996314
vn -0.316821 -0.081800 0.944951
vn -0.009393 0.678893 0.734177
vn -0.156626 0.656397 0.737977
vn 0.929480 0.364821 0.054517
vn 0.923959 0.370213 -0.096142
vn -0.000028 0.079006 -0.996874
vn 0.003193 0.083447 -0.996507
vn 0.131962 0.101024 -0.986093
vn 0.237510 0.009930 -0.971335
vn 0.001341 0.106378 -0.994325
vn 0.227191 0.160751 -0.960491
vn -0.006466 0.370752 -0.928709
vn 0.244244 0.293679 -0.924174
vn 0.296196 0.592403 0.749217
vn 0.381476 0.390898 0.837660
vn 0.227102 0.687784 0.689477
vn 0.270643 -0.028753 0.962250
vn -0.953581 0.294788 0.061506
vn -0.946966 0.317071 0.052165
vn -0.939507 0.342221 -0.014537
vn -0.948146 0.314168 -0.048137
vn -0.964104 0.259768 -0.054991
vn -0.959177 0.245191 0.140932
vn -0.969968 0.238480 -0.047845
vn -0.964961 0.104786 0.240562
vn -0.970194 0.234771 -0.060061
vn -0.148582 0.278665 -0.948825
vn -0.113279 0.139885 -0.983667
vn -0.071425 0.098411 -0.992579
vn -0.094118 0.084403 -0.991977
vn -0.311278 0.949117 0.047780
vn -0.012961 0.999413 -0.031705
vn -0.006272 0.977585 -0.210446
vn -0.351401 0.913102 -0.206792
vn 0.393165 0.895624 -0.208038
vn 0.409510 0.909307 -0.073908
vn -0.977369 -0.078692 0.196358
vn -0.983947 0.053896 -0.170128
vn -0.305459 -0.155858 -0.939363
vn -0.018116 0.038640 -0.999089
vn 0.277049 -0.173439 -0.945073
vn 0.988639 -0.067871 -0.134110
vn 0.978396 -0.048520 0.200964
vn -0.289930 -0.414117 0.862814
vn -0.048945 -0.413998 0.908961
vn 0.247002 -0.414340 0.875963
vn -0.330057 -0.405723 0.852321
vn -0.516257 -0.811989 0.272308
vn -0.266890 -0.670259 0.692476
vn -0.048397 -0.383657 0.922207
vn -0.036157 -0.668050 0.743238
vn 0.268196 -0.403036 0.875004
vn 0.182097 -0.711079 0.679122
vn 0.415451 -0.887675 0.198578
vn 0.725443 -0.611067 0.316748
vn 0.739830 -0.660906 -0.125914
vn 0.408206 -0.911413 -0.051912
vn -0.859275 -0.500115 -0.107390
vn -0.502496 -0.584018 -0.637512
vn -0.293424 -0.939654 -0.175937
vn -0.522739 -0.852451 0.008380
vn -0.007906 -0.993612 -0.112577
vn -0.056404 -0.337662 -0.939576
vn 0.298455 -0.453083 -0.840024
vn 0.224333 -0.957476 -0.181423
vn 0.014306 -0.999890 0.004021
vn 0.013210 -0.999792 0.015570
s 1
g TurtleDefaultBakeLayer rock_MESH
usemtl initialShadingGroup
f 3/1/1 2/2/2 1/3/3 4/4/4
f 6/5/5 3/1/1 4/4/4 5/6/6
f 38/7/7 39/8/8 11/9/9 12/104/10
f 37/11/11 38/7/7 12/104/10 13/88/12
f 39/8/8 40/107/13 14/108/14 11/9/9
f 16/15/15 6/5/5 5/6/6 15/16/16
f 33/17/17 34/18/18 17/19/19 18/89/20
f 17/19/19 34/18/18 35/21/21 22/22/22
f 22/22/22 35/21/21 36/23/23 24/24/24
f 15/16/16 5/6/6 22/99/22 24/95/24
f 17/101/19 22/99/22 5/6/6 4/4/4
f 4/4/4 1/3/3 18/20/20 17/101/19
f 8/25/25 9/105/26 3/1/1 6/5/5
f 7/27/27 8/25/25 6/5/5 16/15/15
f 9/105/26 10/87/28 2/2/2 3/1/1
f 27/29/29 28/30/30 41/31/31 25/32/32 26/33/33
f 30/34/34 27/29/29 26/33/33 29/35/35
f 12/10/10 11/103/9 27/29/29 30/34/34
f 11/103/9 14/94/14 28/30/30 27/29/29
f 32/36/36 30/34/34 29/35/35 31/37/37
f 30/34/34 32/36/36 13/12/12 12/10/10
f 26/33/33 25/32/32 23/38/38 21/39/39
f 21/39/39 20/40/40 29/35/35 26/33/33
f 20/40/40 19/90/41 31/37/37 29/35/35
f 20/102/40 34/18/18 33/17/17 19/41/41
f 35/21/21 34/18/18 20/102/40 21/100/39
f 36/23/23 35/21/21 21/100/39 23/98/38
f 9/26/26 38/7/7 37/11/11 10/28/28
f 8/106/25 39/8/8 38/7/7 9/26/26
f 7/97/27 40/107/13 39/8/8 8/106/25
f 45/93/42 46/43/43 43/44/44 42/96/45
f 23/98/38 42/96/45 43/44/44 36/23/23
f 36/23/23 43/44/44 44/92/46 24/24/24
f 44/92/46 43/44/44 46/43/43 47/91/47
f 46/43/43 45/93/42 14/14/14 40/13/13
f 47/91/47 46/43/43 40/13/13 7/109/27
f 44/46/46 47/47/47 16/15/15 15/16/16
f 44/46/46 15/16/16 24/95/24
f 16/15/15 47/47/47 7/27/27
f 41/31/31 45/42/42 42/45/45 25/32/32
f 14/94/14 45/42/42 41/31/31 28/30/30
f 25/32/32 42/45/45 23/38/38
f 48/48/48 32/36/36 31/37/37 49/49/49
f 19/90/41 50/82/50 49/49/49 31/37/37
f 51/51/51 50/50/50 19/41/41 33/17/17
f 52/80/52 51/51/51 33/17/17 18/89/20
f 1/3/3 53/53/53 52/52/52 18/20/20
f 53/53/53 1/3/3 2/2/2 54/54/54
f 13/12/12 32/36/36 48/48/48 55/55/55
f 13/88/12 55/84/55 56/56/56 37/11/11
f 37/11/11 56/56/56 57/57/57 10/28/28
f 2/2/2 10/87/28 57/86/57 54/54/54
f 70/58/58 48/48/48 58/59/59 59/60/60
f 69/61/61 70/83/58 59/60/60 60/62/62
f 68/63/63 69/61/61 60/62/62 61/64/64
f 62/65/65 67/66/66 68/85/63 61/64/64
f 66/67/67 67/66/66 62/65/65 63/68/68
f 71/69/69 72/81/70 64/71/71 65/72/72
f 48/48/48 71/69/69 65/72/72 58/59/59
f 53/53/53 54/54/54 67/66/66 66/67/67
f 68/85/63 67/66/66 54/54/54 57/86/57
f 56/56/56 69/61/61 68/63/63 57/57/57
f 55/84/55 70/83/58 69/61/61 56/56/56
f 48/48/48 70/58/58 55/55/55
f 48/48/48 49/49/49 71/69/69
f 50/82/50 72/81/70 71/69/69 49/49/49
f 74/73/73 64/71/71 72/70/70 73/74/74
f 73/74/74 75/75/75 76/76/76 74/73/73
f 63/68/68 76/76/76 75/79/75 66/67/67
f 66/67/67 75/79/75 52/52/52 53/53/53
f 75/75/75 73/74/74 51/51/51 52/80/52
f 50/50/50 51/51/51 73/74/74 72/70/70
f 58/59/59 65/72/72 77/77/77 78/78/78
f 77/77/77 63/68/68 62/65/65 78/78/78
f 63/68/68 77/77/77 74/73/73 76/76/76
f 77/77/77 65/72/72 64/71/71 74/73/73
f 60/62/62 59/60/60 58/59/59 78/78/78
f 78/78/78 62/65/65 61/64/64 60/62/62
