# This file uses centimeters as units for non-parametric coordinates.

g default
v -0.542247 1.850609 0.542239
v 0.000000 1.850609 0.766845
v 0.542247 1.850609 0.542239
v 0.766854 1.850609 -0.000008
v 0.542247 1.850609 -0.542256
v 0.000000 1.853460 -0.765834
v -0.542247 1.850609 -0.542256
v -0.766854 1.850609 -0.000008
v -0.653281 2.104904 0.653281
v -0.000000 2.104904 0.923879
v 0.653281 2.104904 0.653281
v 0.923879 2.104904 0.000000
v 0.653281 2.104904 -0.653281
v 0.000000 2.104904 -0.923879
v -0.653281 2.104904 -0.653281
v -0.923880 2.104904 -0.000000
v -0.000000 2.487587 1.000000
v 1.000000 2.487587 0.000000
v 0.707107 2.487587 -0.707107
v 0.000000 2.487587 -1.000000
v -0.707107 2.487587 -0.707107
v -1.000000 2.487587 -0.000000
v -0.000000 2.870271 0.923879
v 0.923879 2.870271 0.000000
v 0.653281 2.870271 -0.653281
v 0.000000 2.870271 -0.923879
v -0.653281 2.870271 -0.653281
v -0.923880 2.870271 -0.000000
v -0.500000 3.194694 0.500000
v -0.000000 3.194694 0.707107
v 0.500000 3.194694 0.500000
v 0.707107 3.194694 0.000000
v 0.500000 3.194694 -0.500000
v 0.000000 3.194694 -0.707107
v -0.500000 3.194694 -0.500000
v -0.707107 3.194694 -0.000000
v -0.270598 3.411467 0.270598
v -0.000000 3.411467 0.382683
v 0.270598 3.411467 0.270598
v 0.382683 3.411467 0.000000
v 0.270598 3.411467 -0.270598
v 0.000000 3.411467 -0.382683
v -0.270598 3.411467 -0.270598
v -0.382683 3.411467 -0.000000
v 0.000000 3.487587 0.000000
v -0.000000 1.609609 1.076242
v -0.761018 1.609609 0.761018
v -1.076242 1.609609 0.000000
v -0.967715 1.609609 -0.761018
v 0.000000 1.805642 -1.025004
v -0.000000 1.181425 1.227358
v -0.867873 1.181425 0.867873
v -1.227358 1.130385 0.007292
v -1.103592 1.164239 -0.890788
v -0.000000 0.684283 1.249878
v -0.883797 0.658323 0.883797
v -1.249878 0.551779 0.000000
v -0.840425 0.424480 -1.216452
v 0.000000 0.344157 -1.644138
v -0.000000 0.192795 0.956615
v -0.676429 0.192795 0.676429
v -0.956615 0.192795 0.000000
v -0.676429 0.135712 -0.730677
v 0.000000 0.097854 -1.110358
v -0.000000 0.023817 0.517716
v -0.366081 0.023817 0.366081
v -0.517716 0.023817 0.000000
v -0.366081 0.023817 -0.379818
v 0.000000 0.023817 -0.553565
v -0.000000 -0.002525 0.000000
v -0.319117 1.845762 -1.970782
v 0.000000 1.867514 -2.079361
v 0.000000 1.716915 -2.201434
v -0.363072 1.678849 -2.026841
v 0.000000 1.384164 -2.256593
v -0.369623 1.433864 -2.095187
v -0.693141 1.684716 -1.399571
v 0.000000 1.805675 -1.564083
v 0.000000 0.915735 -2.062671
v -0.735089 0.999785 -1.743752
v -0.772580 1.414322 -1.561482
v 0.761018 1.609609 0.761018
v 1.076242 1.609609 0.000000
v 0.967715 1.609609 -0.761018
v 0.867873 1.181425 0.867873
v 1.227358 1.130385 0.007292
v 1.103592 1.164239 -0.890788
v 0.883797 0.658323 0.883797
v 1.249878 0.551779 0.000000
v 0.840425 0.424480 -1.216453
v 0.676429 0.192795 0.676429
v 0.956615 0.192795 0.000000
v 0.676429 0.135712 -0.730677
v 0.366081 0.023817 0.366081
v 0.517716 0.023817 0.000000
v 0.366081 0.023817 -0.379818
v 0.319117 1.845762 -1.970782
v 0.363072 1.678849 -2.026841
v 0.369623 1.433864 -2.095187
v 0.693141 1.684716 -1.399571
v 0.735089 0.999785 -1.743752
v 0.772580 1.414322 -1.561482
v -0.580853 1.906845 0.580852
v 0.000000 1.906845 0.821449
v 0.580853 1.906845 0.580852
v 0.821450 1.906845 -0.000001
v 0.580853 1.906845 -0.580854
v 0.000000 1.908574 -0.820827
v -0.580853 1.906845 -0.580854
v -0.821450 1.906845 -0.000001
v -0.787908 2.487587 0.512036
v -0.680197 2.296265 0.680197
v -0.512036 2.487587 0.787908
v -0.576648 3.032466 0.576648
v -0.734082 2.870271 0.458211
v -0.458211 2.870271 0.734082
v 0.512036 2.487587 0.787908
v 0.680197 2.296265 0.680197
v 0.787908 2.487587 0.512036
v 0.576648 3.032466 0.576648
v 0.458211 2.870271 0.734082
v 0.734082 2.870271 0.458211
vt 0.577468 0.318065
vt 0.498744 0.325377
vt 0.420083 0.317406
vt 0.343532 0.300724
vt 0.277170 0.267296
vt 0.246864 0.206985
vt 0.720794 0.269153
vt 0.654156 0.302025
vt 0.628248 0.922760
vt 0.507003 0.931468
vt 0.384619 0.923082
vt 0.262581 0.896702
vt 0.141821 0.854482
vt 0.016535 0.812743
vt 0.865901 0.866870
vt 0.747513 0.899140
vt 0.161519 0.784700
vt 0.979986 0.760778
vt 0.852994 0.795377
vt 0.736130 0.829238
vt 0.192402 0.718729
vt 0.942650 0.677234
vt 0.827836 0.726350
vt 0.719171 0.760157
vt 0.509602 0.717127
vt 0.323962 0.694012
vt 0.235716 0.658928
vt 0.875991 0.608180
vt 0.789767 0.661882
vt 0.697003 0.692684
vt 0.592712 0.640075
vt 0.512364 0.646065
vt 0.432462 0.643040
vt 0.356492 0.630283
vt 0.290112 0.605871
vt 0.788062 0.563425
vt 0.738869 0.600798
vt 0.670023 0.625242
vt 0.672660 0.552528
vt 0.584139 0.359656
vt 0.498576 0.365212
vt 0.671199 0.342010
vt 0.753762 0.321342
vt 0.215906 0.208061
vt 0.591157 0.408720
vt 0.498369 0.414584
vt 0.685525 0.396037
vt 0.778838 0.372154
vt 0.889243 0.253994
vt 0.086404 0.221712
vt 0.066851 0.234666
vt 0.900189 0.270677
vt 0.596950 0.465702
vt 0.498139 0.469693
vt 0.696353 0.459149
vt 0.837310 0.450908
vt 0.040759 0.263526
vt 0.969663 0.151320
vt 0.620388 0.194820
vt 0.588218 0.125692
vt 0.692172 0.221341
vt 0.766978 0.187817
vt 0.853734 0.113502
vt 0.797393 0.116089
vt 0.652713 0.159770
vt 0.635613 0.123516
vt 0.690275 0.173321
vt 0.728052 0.156765
vt 0.742987 0.118587
vt 0.687881 0.121117
vt 0.825356 0.292862
vt 0.150926 0.209902
vt 0.848678 0.323495
vt 0.921514 0.110391
vt 0.882463 0.364733
vt 0.413063 0.358940
vt 0.326154 0.340565
vt 0.243767 0.319207
vt 0.405633 0.407943
vt 0.311376 0.394471
vt 0.218267 0.369808
vt 0.108854 0.250728
vt 0.097768 0.267320
vt 0.399365 0.464875
vt 0.300021 0.457490
vt 0.819567 0.026040
vt 0.079585 0.289614
vt 0.613919 0.053907
vt 0.682971 0.020921
vt 0.760534 0.047450
vt 0.649319 0.085849
vt 0.685482 0.068913
vt 0.724617 0.081938
vt 0.172413 0.290130
vt 0.148836 0.320567
vt 0.114707 0.361520
vt 0.630598 0.962883
vt 0.505829 0.971615
vt 0.379684 0.962840
vt 0.254778 0.936030
vt 0.134021 0.894978
vt 0.981763 0.893204
vt 0.868113 0.907664
vt 0.751868 0.939155
vt 0.753250 0.953014
vt 0.631362 0.976706
vt 0.868661 0.921851
vt 0.018309 0.875876
vt 0.131709 0.909021
vt 0.252254 0.949645
vt 0.378060 0.976543
vt 0.505437 0.985423
vt 0.016247 0.860184
vt 0.986736 0.846929
vt 0.246255 0.566021
vt 0.162389 0.598327
vt 0.089527 0.653158
vt 0.038873 0.727805
vt 0.977754 0.908279
vt 0.715755 0.533190
vt 0.318368 0.539566
vt 0.350826 0.555530
vt 0.406084 0.569320
vt 0.472340 0.576218
vt 0.542467 0.575482
vt 0.611301 0.567337
vt 0.904057 0.029281
vt 0.965710 0.065223
vt 0.957228 0.267361
vt 0.971069 0.108116
vt 0.159138 0.448070
vt 0.205196 0.504845
vt 0.299069 0.505584
vt 0.911562 0.192759
vt 0.918186 0.293123
vt 0.847514 0.212817
vt 0.911935 0.225166
vt 0.827725 0.203728
vt 0.931378 0.238284
vt 0.782552 0.210433
vt 0.790779 0.507295
vt 0.751603 0.209098
vt 0.696903 0.507249
vt 0.497868 0.534578
vt 0.395411 0.523190
vt 0.600417 0.524048
vt 0.508121 0.860303
vt 0.608430 0.745704
vt 0.603386 0.710512
vt 0.278116 0.827903
vt 0.409753 0.747104
vt 0.416139 0.712150
vt 0.508487 0.788472
vt 0.297950 0.759869
vt 0.653590 0.845683
vt 0.582124 0.783154
vt 0.425064 0.854860
vt 0.371890 0.775427
vt 0.625196 0.887351
vt 0.590689 0.854253
vt 0.645035 0.774699
vt 0.389021 0.887931
vt 0.361612 0.845922
vt 0.434757 0.783968
vn -0.608907 -0.508389 0.608911
vn -0.000000 -0.508393 0.861125
vn 0.000000 -0.282396 0.959298
vn -0.678326 -0.282396 0.678326
vn 0.608907 -0.508389 0.608911
vn 0.678326 -0.282396 0.678326
vn 0.861134 -0.508378 0.000004
vn 0.959897 -0.280159 -0.010464
vn 0.608483 -0.510135 -0.607874
vn 0.679226 -0.278432 -0.679064
vn 0.000000 -0.511046 -0.859554
vn 0.000000 -0.278650 -0.960393
vn -0.608483 -0.510135 -0.607874
vn -0.679225 -0.278432 -0.679064
vn -0.861134 -0.508378 0.000004
vn -0.959896 -0.280159 -0.010464
vn 0.000000 -0.026056 0.999661
vn -0.461237 -0.004318 0.887267
vn -0.696211 -0.174871 0.696211
vn 0.696211 -0.174871 0.696211
vn 0.461237 -0.004318 0.887267
vn 0.999101 -0.011739 -0.040739
vn 0.887267 -0.004318 0.461237
vn 0.707107 0.000000 -0.707107
vn 0.000000 0.000000 -1.000000
vn -0.707107 0.000000 -0.707107
vn -0.999101 -0.011739 -0.040739
vn -0.887267 -0.004318 0.461237
vn -0.441719 0.350848 0.825706
vn -0.000000 0.372688 0.927957
vn 0.441719 0.350848 0.825706
vn 0.825706 0.350848 0.441719
vn 0.931971 0.359647 -0.045663
vn 0.662410 0.349894 -0.662410
vn 0.000000 0.349894 -0.936789
vn -0.662410 0.349894 -0.662410
vn -0.931970 0.359647 -0.045663
vn -0.825706 0.350848 0.441719
vn 0.597128 0.535607 0.597129
vn 0.531178 0.660076 0.531178
vn -0.000000 0.660076 0.751199
vn 0.534760 0.654266 -0.534760
vn 0.753772 0.657053 -0.010398
vn 0.000000 0.654266 -0.756265
vn -0.534760 0.654266 -0.534760
vn -0.753772 0.657053 -0.010398
vn -0.597129 0.535608 0.597128
vn -0.531178 0.660076 0.531178
vn 0.000000 0.868197 0.496221
vn -0.350881 0.868197 0.350881
vn 0.350881 0.868197 0.350881
vn 0.496220 0.868197 -0.000000
vn 0.350881 0.868197 -0.350881
vn 0.000000 0.868197 -0.496220
vn -0.350881 0.868197 -0.350881
vn -0.496220 0.868197 0.000000
vn 0.000000 1.000000 -0.000000
vn -0.000000 0.674047 0.738688
vn -0.522334 0.674047 0.522329
vn -0.619646 0.499149 0.605714
vn -0.000000 0.505970 0.862551
vn -0.684989 0.727139 0.045370
vn -0.844346 0.527063 0.096353
vn -0.467349 0.816540 -0.338893
vn -0.719782 0.672064 -0.173905
vn 0.000000 0.865765 -0.500450
vn -0.000000 0.996178 -0.087349
vn -0.707339 0.166686 0.686941
vn -0.000000 0.169795 0.985479
vn -0.994227 0.086358 0.063676
vn -0.963107 0.040719 -0.266021
vn -0.359616 0.926266 -0.112730
vn -0.000000 0.994411 -0.105578
vn -0.000000 0.325958 -0.945384
vn -0.698240 0.321474 -0.639622
vn -0.684804 -0.221214 0.694340
vn -0.000000 -0.223325 0.974744
vn -0.955958 -0.291765 0.031911
vn -0.713147 -0.521975 -0.467935
vn 0.000000 -0.233594 -0.972334
vn -0.574213 -0.085370 -0.814243
vn -0.491446 -0.683855 0.539281
vn -0.000000 -0.662798 0.748798
vn -0.669664 -0.740531 0.056242
vn -0.476409 -0.843591 -0.247769
vn -0.000000 -0.732841 -0.680400
vn -0.000000 -0.931394 -0.364013
vn -0.214111 -0.953054 0.214111
vn 0.000000 -0.953054 0.302799
vn -0.285994 -0.957837 0.027473
vn -0.187094 -0.976932 -0.102960
vn 0.000000 -0.989878 -0.141924
vn -0.000000 -1.000000 0.000169
vn -0.497553 0.858385 -0.124964
vn 0.000000 0.996404 0.084735
vn -0.892109 0.160427 -0.422381
vn 0.000000 -0.532383 -0.846504
vn -0.685535 -0.313952 -0.656868
vn 0.619646 0.499149 0.605714
vn 0.522334 0.674047 0.522329
vn 0.844346 0.527063 0.096353
vn 0.684989 0.727139 0.045370
vn 0.719782 0.672064 -0.173905
vn 0.467349 0.816540 -0.338893
vn 0.707339 0.166686 0.686941
vn 0.994227 0.086358 0.063676
vn 0.963107 0.040720 -0.266021
vn 0.359616 0.926266 -0.112729
vn 0.698240 0.321474 -0.639622
vn 0.684804 -0.221214 0.694340
vn 0.955958 -0.291765 0.031911
vn 0.713147 -0.521975 -0.467935
vn 0.574213 -0.085370 -0.814243
vn 0.491446 -0.683855 0.539281
vn 0.669664 -0.740531 0.056241
vn 0.476409 -0.843591 -0.247769
vn 0.214111 -0.953054 0.214111
vn 0.285994 -0.957837 0.027473
vn 0.187094 -0.976932 -0.102960
vn 0.497553 0.858385 -0.124964
vn 0.892109 0.160427 -0.422380
vn 0.685535 -0.313952 -0.656868
s 1
g ducky Ducky
f 103/97/1 104/98/2 10/10/3 9/9/4
f 104/98/2 105/99/5 11/11/6 10/10/3
f 105/99/5 106/100/7 12/12/8 11/11/6
f 106/100/7 107/101/9 13/13/10 12/12/8
f 107/101/9 108/113/11 14/14/12 13/13/10
f 108/102/11 109/103/13 15/15/14 14/114/12
f 109/103/13 110/104/15 16/16/16 15/15/14
f 110/104/15 103/97/1 9/9/4 16/16/16
f 9/9/4 10/10/3 17/147/17 113/160/18 112/159/19
f 10/10/3 11/11/6 118/162/20 117/157/21 17/147/17
f 11/11/6 12/12/8 18/150/22 119/163/23 118/162/20
f 12/12/8 13/13/10 19/17/24 18/150/22
f 13/13/10 14/14/12 20/118/25 19/17/24
f 14/114/12 15/15/14 21/19/26 20/18/25
f 15/15/14 16/16/16 22/20/27 21/19/26
f 16/16/16 9/9/4 112/159/19 111/155/28 22/20/27
f 116/156/29 113/160/18 17/147/17 23/153/30
f 17/147/17 117/157/21 121/164/31 23/153/30
f 122/158/32 119/163/23 18/150/22 24/154/33
f 18/150/22 19/17/24 25/21/34 24/154/33
f 19/17/24 20/118/25 26/117/35 25/21/34
f 20/18/25 21/19/26 27/23/36 26/22/35
f 21/19/26 22/20/27 28/24/37 27/23/36
f 22/20/27 111/155/28 115/161/38 28/24/37
f 23/153/30 121/164/31 120/151/39 31/152/40 30/25/41
f 24/154/33 25/21/34 33/27/42 32/26/43
f 25/21/34 26/117/35 34/116/44 33/27/42
f 26/22/35 27/23/36 35/29/45 34/28/44
f 27/23/36 28/24/37 36/30/46 35/29/45
f 28/24/37 115/161/38 114/148/47 29/149/48 36/30/46
f 29/149/48 30/25/41 38/32/49 37/31/50
f 30/25/41 31/152/40 39/33/51 38/32/49
f 31/152/40 32/26/43 40/34/52 39/33/51
f 32/26/43 33/27/42 41/35/53 40/34/52
f 33/27/42 34/116/44 42/115/54 41/35/53
f 34/28/44 35/29/45 43/37/55 42/36/54
f 35/29/45 36/30/46 44/38/56 43/37/55
f 36/30/46 29/149/48 37/31/50 44/38/56
f 37/31/50 38/32/49 45/125/57
f 38/32/49 39/33/51 45/124/57
f 39/33/51 40/34/52 45/123/57
f 40/34/52 41/35/53 45/122/57
f 41/35/53 42/115/54 45/121/57
f 42/36/54 43/37/55 45/120/57
f 43/37/55 44/38/56 45/39/57
f 44/38/56 37/31/50 45/126/57
f 2/2/58 1/1/59 47/40/60 46/41/61
f 1/1/59 8/8/62 48/42/63 47/40/60
f 8/8/62 7/7/64 49/43/65 48/42/63
f 7/7/64 6/142/66 50/140/67 49/43/65
f 46/41/61 47/40/60 52/45/68 51/46/69
f 47/40/60 48/42/63 53/47/70 52/45/68
f 48/42/63 49/43/65 54/48/71 53/47/70
f 71/49/72 72/137/73 73/139/74 74/52/75
f 51/46/69 52/45/68 56/53/76 55/54/77
f 52/45/68 53/47/70 57/55/78 56/53/76
f 53/47/70 54/48/71 58/56/79 57/55/78
f 74/52/75 73/139/74 75/129/80 76/135/81
f 55/54/77 56/53/76 61/146/82 60/144/83
f 56/53/76 57/55/78 62/143/84 61/146/82
f 57/55/78 58/56/79 63/141/85 62/143/84
f 58/138/79 59/63/86 64/64/87 63/62/85
f 60/60/83 61/59/82 66/65/88 65/66/89
f 61/59/82 62/61/84 67/67/90 66/65/88
f 62/61/84 63/62/85 68/68/91 67/67/90
f 63/62/85 64/64/87 69/69/92 68/68/91
f 65/66/89 66/65/88 70/70/93
f 66/65/88 67/67/90 70/70/93
f 67/67/90 68/68/91 70/70/93
f 68/68/91 69/69/92 70/70/93
f 77/71/94 78/136/95 72/137/73 71/49/72
f 81/73/96 77/71/94 71/49/72 74/52/75
f 79/74/97 80/134/98 76/58/81 75/130/80
f 80/75/98 81/73/96 74/52/75 76/135/81
f 49/43/65 50/140/67 78/136/95 77/71/94
f 59/63/86 58/138/79 80/134/98 79/74/97
f 58/56/79 54/48/71 81/73/96 80/75/98
f 54/48/71 49/43/65 77/71/94 81/73/96
f 2/2/58 46/41/61 82/76/99 3/3/100
f 3/3/100 82/76/99 83/77/101 4/4/102
f 4/4/102 83/77/101 84/78/103 5/5/104
f 5/5/104 84/78/103 50/44/67 6/6/66
f 46/41/61 51/46/69 85/79/105 82/76/99
f 82/76/99 85/79/105 86/80/106 83/77/101
f 83/77/101 86/80/106 87/81/107 84/78/103
f 97/82/108 98/83/109 73/51/74 72/50/73
f 51/46/69 55/54/77 88/84/110 85/79/105
f 85/79/105 88/84/110 89/85/111 86/80/106
f 86/80/106 89/85/111 90/131/112 87/81/107
f 98/83/109 99/87/113 75/57/80 73/51/74
f 55/54/77 60/144/83 91/145/114 88/84/110
f 88/84/110 91/145/114 92/133/115 89/85/111
f 89/85/111 92/133/115 93/132/116 90/131/112
f 90/86/112 93/90/116 64/64/87 59/63/86
f 60/60/83 65/66/89 94/91/117 91/88/114
f 91/88/114 94/91/117 95/92/118 92/89/115
f 92/89/115 95/92/118 96/93/119 93/90/116
f 93/90/116 96/93/119 69/69/92 64/64/87
f 65/66/89 70/70/93 94/91/117
f 94/91/117 70/70/93 95/92/118
f 95/92/118 70/70/93 96/93/119
f 96/93/119 70/70/93 69/69/92
f 100/94/120 97/82/108 72/50/73 78/72/95
f 102/95/121 98/83/109 97/82/108 100/94/120
f 79/74/97 75/130/80 99/128/113 101/127/122
f 101/96/122 99/87/113 98/83/109 102/95/121
f 84/78/103 100/94/120 78/72/95 50/44/67
f 59/63/86 79/74/97 101/127/122 90/86/112
f 90/131/112 101/96/122 102/95/121 87/81/107
f 87/81/107 102/95/121 100/94/120 84/78/103
f 1/106/59 2/112/58 104/98/2 103/97/1
f 2/112/58 3/111/100 105/99/5 104/98/2
f 3/111/100 4/110/102 106/100/7 105/99/5
f 4/110/102 5/109/104 107/101/9 106/100/7
f 5/109/104 6/108/66 108/113/11 107/101/9
f 6/119/66 7/107/64 109/103/13 108/102/11
f 7/107/64 8/105/62 110/104/15 109/103/13
f 8/105/62 1/106/59 103/97/1 110/104/15
f 114/148/47 116/156/29 23/153/30 30/25/41 29/149/48
f 120/151/39 122/158/32 24/154/33 32/26/43 31/152/40
f 111/155/28 113/160/18 116/156/29 115/161/38
f 117/157/21 119/163/23 122/158/32 121/164/31
f 111/155/28 112/159/19 113/160/18
f 114/148/47 115/161/38 116/156/29
f 117/157/21 118/162/20 119/163/23
f 120/151/39 121/164/31 122/158/32
g default
v -0.173502 2.175763 1.298205
v -0.140730 2.602999 0.918240
v -0.350860 2.344731 1.333196
v -0.550050 2.236393 0.896713
v -0.505191 2.346268 0.991032
v -0.000000 2.602999 0.979320
v 0.000000 2.344731 1.427034
v 0.000000 2.175763 1.347924
v -0.249380 2.443355 1.080223
v 0.000000 2.450789 1.047802
v 0.000000 2.122816 1.128071
v -0.205467 2.147679 1.088055
v -0.550050 2.236393 0.714568
v -0.505191 2.346268 0.759121
v -0.249380 2.443280 0.894433
v -0.205467 2.147679 0.848989
v 0.000000 2.122816 0.930035
v 0.173502 2.175763 1.298205
v 0.140730 2.602999 0.918240
v 0.350860 2.344731 1.333196
v 0.550050 2.236393 0.896713
v 0.505191 2.346268 0.991032
v 0.249380 2.443355 1.080223
v 0.205467 2.147679 1.088055
v 0.550050 2.236393 0.714568
v 0.505191 2.346268 0.759121
v 0.249380 2.443280 0.894433
v 0.205467 2.147679 0.848989
vt 0.366868 0.116808
vt 0.344793 0.266155
vt 0.346452 0.157657
vt 0.283680 0.149526
vt 0.268563 0.119160
vt 0.396178 0.265749
vt 0.396427 0.162818
vt 0.396584 0.123312
vt 0.330849 0.210202
vt 0.396251 0.231605
vt 0.396745 0.079378
vt 0.348029 0.086433
vt 0.234050 0.143736
vt 0.233234 0.103216
vt 0.292125 0.226158
vt 0.323239 0.043128
vt 0.396900 0.037859
vt 0.426348 0.117026
vt 0.446477 0.157988
vt 0.509319 0.150254
vt 0.524642 0.119997
vt 0.461758 0.210594
vt 0.447555 0.266436
vt 0.445401 0.086767
vt 0.558989 0.144794
vt 0.560085 0.104299
vt 0.500404 0.226780
vt 0.470512 0.043634
vn -0.379039 -0.718292 0.583427
vn -0.590471 0.384898 0.709364
vn -0.896082 0.198111 0.397227
vn -0.620735 -0.769100 0.152229
vn -0.197387 0.939509 0.279931
vn -0.000000 0.883728 0.468002
vn -0.000000 0.609953 0.792438
vn -0.230638 0.662658 0.712524
vn -0.000000 -0.719248 0.694753
vn -0.000000 0.675031 0.737790
vn -0.213917 -0.973437 0.081610
vn -0.000000 -0.994655 0.103250
vn -0.651707 0.758471 -0.000104
vn -0.548197 -0.836349 0.000000
vn -0.453469 0.891272 -0.000183
vn -0.214514 -0.976721 0.000000
vn 0.000000 -1.000000 0.000000
vn 0.379039 -0.718291 0.583427
vn 0.620735 -0.769100 0.152229
vn 0.896082 0.198111 0.397227
vn 0.590471 0.384897 0.709364
vn 0.197387 0.939509 0.279931
vn 0.230638 0.662658 0.712525
vn 0.213917 -0.973437 0.081610
vn 0.548197 -0.836349 0.000000
vn 0.651707 0.758471 -0.000104
vn 0.453469 0.891272 -0.000183
vn 0.214514 -0.976721 0.000000
s 1
g Ducky beak
f 123/165/123 125/167/124 127/168/125 126/169/126
f 131/173/127 132/174/128 128/170/129 124/166/130
f 123/165/123 130/172/131 129/171/132 125/167/124
f 125/167/124 129/171/132 132/174/128 131/173/127
f 125/167/124 131/173/127 127/168/125
f 130/172/131 123/165/123 134/176/133 133/175/134
f 134/176/133 123/165/123 126/169/126
f 126/169/126 127/168/125 136/177/135 135/178/136
f 131/173/127 124/166/130 137/179/137
f 127/168/125 131/173/127 137/179/137 136/177/135
f 134/176/133 126/169/126 135/178/136 138/180/138
f 133/175/134 134/176/133 138/180/138 139/181/139
f 140/182/140 143/185/141 144/184/142 142/183/143
f 145/186/144 141/187/145 128/170/129 132/174/128
f 140/182/140 142/183/143 129/171/132 130/172/131
f 142/183/143 145/186/144 132/174/128 129/171/132
f 142/183/143 144/184/142 145/186/144
f 130/172/131 133/175/134 146/188/146 140/182/140
f 146/188/146 143/185/141 140/182/140
f 143/185/141 147/190/147 148/189/148 144/184/142
f 145/186/144 149/191/149 141/187/145
f 144/184/142 148/189/148 149/191/149 145/186/144
f 146/188/146 150/192/150 147/190/147 143/185/141
f 133/175/134 139/181/139 150/192/150 146/188/146
