# This file uses centimeters as units for non-parametric coordinates.

g default
v -31.415923 0.125619 -0.507277
v -33.876459 0.125619 1.176860
v -29.875760 0.125619 -8.913714
v -33.668222 0.125619 -8.305438
v -31.188865 0.125619 -16.716815
v -25.805515 0.125619 -13.657233
v -29.867242 0.125619 -18.750468
v -32.286949 0.125619 -13.972395
v -18.561775 0.125619 -22.419264
v -20.011398 0.125619 -25.810595
v -9.470231 0.125619 -24.347434
v -9.852967 0.125619 -28.026972
v -2.929360 0.125619 -26.202528
v -4.346630 0.125619 -30.540614
v -1.515172 0.125619 -30.088213
v 3.265796 0.125619 -25.165301
v 1.249806 0.125619 -29.077601
v 4.603897 0.125619 -28.611083
v 11.649488 0.125619 -22.932856
v 10.921835 0.125619 -25.943041
v 23.920016 0.125619 -19.259783
v 26.301282 0.125619 -21.933791
v 19.868195 0.125619 -24.056216
v 17.867730 0.125619 -22.477335
v 17.297131 0.125619 -25.810595
v 27.866288 0.125619 -19.463782
v 28.589036 0.125619 -16.831252
v 21.221923 0.125619 -3.769581
v 32.017436 0.125619 -3.785534
v 32.755492 0.125619 -10.343077
v 28.016869 0.125619 -9.468306
v 13.345480 0.125619 -3.625531
v 21.252879 0.125619 -9.403510
v -26.800340 0.125619 -1.883290
v -17.103149 0.125619 -9.036074
v -11.064598 0.125619 -3.179087
v -8.991323 0.125619 -9.113780
v -3.090868 0.125619 -3.324921
v 0.655503 0.125619 -9.206194
v 2.547728 0.125619 -3.428048
v 8.488823 0.125619 -9.313059
v 6.512757 0.125619 -3.500561
v 17.163386 0.125619 -9.364329
v -37.069024 -5.651393 3.805585
v -36.317468 -5.651385 -11.421359
v -32.194145 -5.651385 -22.752188
v -33.627847 -5.651385 -20.546069
v -34.819055 -5.651385 -17.568907
v -21.502467 -5.651385 -30.411055
v -10.482543 -5.651385 -32.815394
v -4.509239 -5.651385 -35.542204
v -1.437656 -5.651385 -35.051440
v 1.561808 -5.651385 -33.955122
v 12.054080 -5.651385 -30.554736
v 5.200345 -5.651385 -33.449038
v 28.737792 -5.651385 -26.205477
v 21.759143 -5.651385 -28.507895
v 18.970038 -5.651385 -30.411055
v 30.435519 -5.651385 -23.525996
v 31.219561 -5.651385 -20.670214
v 35.615534 -5.651393 -3.015465
v 35.739356 -5.651385 -12.665015
vt 0.098713 0.463323
vt 0.134419 0.452707
vt 0.099073 0.520351
vt 0.145221 0.526738
vt 0.143193 0.646502
vt 0.128269 0.621917
vt 0.194026 0.586110
vt 0.115477 0.588893
vt 0.276362 0.697991
vt 0.255845 0.738625
vt 0.384639 0.728986
vt 0.376798 0.774839
vt 0.463029 0.755675
vt 0.442413 0.806731
vt 0.476677 0.804154
vt 0.539341 0.748774
vt 0.511351 0.795514
vt 0.632560 0.766595
vt 0.552507 0.792355
vt 0.643112 0.728783
vt 0.719116 0.726431
vt 0.794335 0.690570
vt 0.820107 0.724268
vt 0.742772 0.747683
vt 0.710288 0.766337
vt 0.841090 0.696966
vt 0.853840 0.666585
vt 0.879508 0.515844
vt 0.922873 0.534961
vt 0.909040 0.580921
vt 0.852395 0.575705
vt 0.793724 0.505459
vt 0.770265 0.567720
vt 0.301575 0.462020
vt 0.302245 0.533633
vt 0.406303 0.470138
vt 0.401477 0.540170
vt 0.530204 0.480788
vt 0.519545 0.548598
vt 0.626950 0.490626
vt 0.615128 0.556312
vt 0.741483 0.500134
vt 0.720608 0.563827
vt 0.022102 0.507808
vt 0.026742 0.571357
vt 0.085740 0.717651
vt 0.067081 0.688448
vt 0.049736 0.650188
vt 0.217617 0.822313
vt 0.354438 0.867268
vt 0.433124 0.898806
vt 0.473116 0.897302
vt 0.513238 0.889395
vt 0.650217 0.859969
vt 0.559568 0.885533
vt 0.866624 0.802551
vt 0.777481 0.835695
vt 0.738655 0.854786
vt 0.893831 0.771549
vt 0.912200 0.737923
vt 0.994190 0.586910
vt 0.975914 0.640248
vn 0.000000 1.000000 0.000000
vn 0.000000 1.000000 0.000000
vn 0.000000 1.000000 0.000000
vn 0.000000 1.000000 0.000000
vn 0.000000 1.000000 0.000000
vn 0.000000 1.000000 0.000000
vn 0.000000 1.000000 0.000000
vn 0.000000 1.000000 0.000000
vn 0.000000 1.000000 0.000000
vn 0.000000 1.000000 0.000000
vn 0.000000 1.000000 0.000000
vn 0.000000 1.000000 0.000000
vn 0.000000 1.000000 0.000000
vn 0.000000 1.000000 0.000000
vn 0.000000 1.000000 0.000000
vn 0.000000 1.000000 0.000000
vn 0.000000 1.000000 0.000000
vn 0.000000 1.000000 0.000000
vn 0.000000 1.000000 0.000000
vn 0.000000 1.000000 0.000000
vn 0.000000 1.000000 0.000000
vn 0.000000 1.000000 0.000000
vn 0.000000 1.000000 0.000000
vn 0.000000 1.000000 0.000000
vn 0.000000 1.000000 0.000000
vn 0.000000 1.000000 0.000000
vn -0.000000 1.000000 0.000000
vn -0.000000 1.000000 0.000000
vn -0.000000 1.000000 0.000000
vn -0.000000 1.000000 0.000000
vn -0.000000 1.000000 0.000000
vn -0.000000 1.000000 0.000000
vn -0.000000 1.000000 0.000000
vn -0.000000 1.000000 0.000000
vn -0.000000 1.000000 0.000000
vn -0.000000 1.000000 0.000000
vn -0.000000 1.000000 0.000000
vn -0.000000 1.000000 0.000000
vn -0.000000 1.000000 0.000000
vn -0.000000 1.000000 0.000000
vn -0.000000 1.000000 0.000000
vn -0.000000 1.000000 0.000000
vn -0.000000 1.000000 0.000000
vn -0.000000 1.000000 0.000000
vn -0.000000 1.000000 0.000000
vn -0.000000 1.000000 0.000000
vn -0.000000 1.000000 0.000000
vn -0.000000 1.000000 0.000000
vn -0.000000 1.000000 0.000000
vn -0.000000 1.000000 0.000000
vn -0.000000 1.000000 0.000000
vn -0.000000 1.000000 0.000000
vn -0.000000 1.000000 0.000000
vn -0.000000 1.000000 0.000000
vn -0.000000 1.000000 0.000000
vn -0.000000 1.000000 0.000000
vn -0.000000 1.000000 0.000000
vn -0.000000 1.000000 0.000000
vn -0.000000 1.000000 0.000000
vn -0.000000 1.000000 0.000000
vn -0.000000 1.000000 0.000000
vn -0.000000 1.000000 0.000000
vn -0.000000 1.000000 0.000000
vn -0.000000 1.000000 0.000000
vn -0.000000 1.000000 0.000000
vn 0.000000 1.000000 0.000000
vn 0.000000 1.000000 0.000000
vn 0.000000 1.000000 0.000000
vn 0.000000 1.000000 0.000000
vn 0.000000 1.000000 0.000000
vn 0.000000 1.000000 0.000000
vn 0.000000 1.000000 0.000000
vn 0.000000 1.000000 0.000000
vn 0.000000 1.000000 -0.000000
vn 0.000000 1.000000 -0.000000
vn 0.000000 1.000000 -0.000000
vn 0.000000 1.000000 -0.000000
vn 0.000000 1.000000 -0.000000
vn 0.000000 1.000000 -0.000000
vn 0.000000 1.000000 -0.000000
vn 0.000000 1.000000 -0.000000
vn 0.000000 1.000000 0.000000
vn 0.000000 1.000000 0.000000
vn 0.000000 1.000000 0.000000
vn 0.000000 1.000000 0.000000
vn 0.000000 1.000000 -0.000000
vn 0.000000 1.000000 -0.000000
vn 0.000000 1.000000 -0.000000
vn 0.000000 1.000000 -0.000000
vn 0.000000 1.000000 -0.000000
vn 0.000000 1.000000 -0.000000
vn 0.000000 1.000000 -0.000000
vn 0.000000 1.000000 -0.000000
vn 0.000000 1.000000 0.000000
vn 0.000000 1.000000 0.000000
vn 0.000000 1.000000 0.000000
vn 0.000000 1.000000 0.000000
vn 0.000000 1.000000 -0.000000
vn 0.000000 1.000000 -0.000000
vn 0.000000 1.000000 -0.000000
vn 0.000000 1.000000 -0.000000
vn 0.000000 1.000000 0.000000
vn 0.000000 1.000000 0.000000
vn 0.000000 1.000000 0.000000
vn 0.000000 1.000000 0.000000
vn 0.000000 1.000000 0.000000
vn 0.000000 1.000000 0.000000
vn 0.000000 1.000000 0.000000
vn 0.000000 1.000000 0.000000
vn 0.000000 1.000000 -0.000000
vn 0.000000 1.000000 -0.000000
vn 0.000000 1.000000 -0.000000
vn 0.000000 1.000000 -0.000000
vn 0.000000 1.000000 -0.000000
vn 0.000000 1.000000 -0.000000
vn 0.000000 1.000000 -0.000000
vn 0.000000 1.000000 -0.000000
vn 0.000000 1.000000 0.000000
vn 0.000000 1.000000 0.000000
vn 0.000000 1.000000 0.000000
vn 0.000000 1.000000 0.000000
vn -0.891292 0.452106 -0.034621
vn -0.891292 0.452106 -0.034621
vn -0.891292 0.452106 -0.034621
vn -0.891292 0.452106 -0.034621
vn -0.682015 0.581728 -0.443225
vn -0.682015 0.581728 -0.443225
vn -0.682015 0.581728 -0.443225
vn -0.682015 0.581728 -0.443225
vn -0.782633 0.537984 -0.313144
vn -0.782633 0.537984 -0.313144
vn -0.782633 0.537984 -0.313144
vn -0.782633 0.537984 -0.313144
vn -0.842879 0.497341 -0.205445
vn -0.842879 0.497341 -0.205445
vn -0.842879 0.497341 -0.205445
vn -0.842879 0.497341 -0.205445
vn -0.455247 0.623591 -0.635519
vn -0.455247 0.623591 -0.635519
vn -0.455247 0.623591 -0.635519
vn -0.455247 0.623591 -0.635519
vn -0.163781 0.640059 -0.750667
vn -0.163781 0.640059 -0.750667
vn -0.163781 0.640059 -0.750667
vn -0.163781 0.640059 -0.750667
vn -0.324389 0.624353 -0.710602
vn -0.324389 0.624353 -0.710602
vn -0.324389 0.624353 -0.710602
vn -0.324389 0.624353 -0.710602
vn 0.120184 0.647866 -0.752214
vn 0.120184 0.647866 -0.752214
vn 0.120184 0.647866 -0.752214
vn 0.120184 0.647866 -0.752214
vn 0.266561 0.630139 -0.729294
vn 0.266561 0.630139 -0.729294
vn 0.266561 0.630139 -0.729294
vn 0.266561 0.630139 -0.729294
vn 0.302058 0.630193 -0.715274
vn 0.302058 0.630193 -0.715275
vn 0.302058 0.630193 -0.715275
vn 0.302058 0.630193 -0.715275
vn 0.105294 0.644844 -0.757027
vn 0.105294 0.644844 -0.757027
vn 0.105294 0.644844 -0.757027
vn 0.105294 0.644844 -0.757027
vn 0.240573 0.640641 -0.729180
vn 0.240573 0.640641 -0.729180
vn 0.240573 0.640641 -0.729180
vn 0.240573 0.640641 -0.729180
vn 0.435628 0.634547 -0.638418
vn 0.435628 0.634547 -0.638418
vn 0.435628 0.634547 -0.638418
vn 0.435628 0.634547 -0.638418
vn 0.016202 0.625733 -0.779869
vn 0.016202 0.625733 -0.779869
vn 0.016202 0.625733 -0.779869
vn 0.016202 0.625733 -0.779869
vn 0.675118 0.601033 -0.427756
vn 0.675118 0.601033 -0.427756
vn 0.675118 0.601033 -0.427756
vn 0.675118 0.601033 -0.427756
vn 0.821400 0.523877 -0.225511
vn 0.821400 0.523877 -0.225511
vn 0.821400 0.523877 -0.225511
vn 0.821400 0.523877 -0.225511
vn 0.870632 0.489752 0.046300
vn 0.870632 0.489752 0.046300
vn 0.870632 0.489752 0.046300
vn 0.870632 0.489752 0.046300
vn 0.705693 0.568437 -0.422940
vn 0.705693 0.568437 -0.422940
vn 0.705692 0.568437 -0.422940
vn 0.705692 0.568437 -0.422940
s off
g sandTerain Final
f 4/3/1 2/1/2 1/2/3 3/4/4
f 7/5/5 5/6/6 6/7/7
f 5/6/8 8/8/9 6/7/10
f 3/4/11 6/7/12 8/8/13 4/3/14
f 6/7/15 9/9/16 10/10/17 7/5/18
f 9/9/19 11/11/20 12/12/21 10/10/22
f 11/11/23 13/13/24 14/14/25 12/12/26
f 15/15/27 14/14/28 13/13/29
f 13/13/30 16/16/31 17/17/32 15/15/33
f 20/18/34 18/19/35 16/16/36 19/20/37
f 16/16/38 18/19/39 17/17/40
f 24/21/41 21/22/42 22/23/43 23/24/44
f 24/21/45 23/24/46 25/25/47
f 19/20/48 24/21/49 25/25/50 20/18/51
f 22/23/52 21/22/53 26/26/54
f 26/26/55 21/22/56 27/27/57
f 29/29/58 30/30/59 31/31/60 28/28/61
f 21/22/62 31/31/63 30/30/64 27/27/65
f 3/4/66 1/2/67 34/34/68 35/35/69
f 6/7/70 3/4/71 35/35/72 9/9/73
f 33/33/74 32/32/75 28/28/76 31/31/77
f 24/21/78 33/33/79 31/31/80 21/22/81
f 35/35/82 34/34/83 36/36/84 37/37/85
f 9/9/86 35/35/87 37/37/88 11/11/89
f 37/37/90 36/36/91 38/38/92 39/39/93
f 11/11/94 37/37/95 39/39/96 13/13/97
f 39/39/98 38/38/99 40/40/100 41/41/101
f 13/13/102 39/39/103 41/41/104 16/16/105
f 41/41/106 40/40/107 42/42/108 43/43/109
f 16/16/110 41/41/111 43/43/112 19/20/113
f 43/43/114 42/42/115 32/32/116 33/33/117
f 19/20/118 43/43/119 33/33/120 24/21/121
f 2/1/122 4/3/123 45/45/124 44/44/125
f 5/6/126 7/5/127 46/46/128 47/47/129
f 8/8/130 5/6/131 47/47/132 48/48/133
f 4/3/134 8/8/135 48/48/136 45/45/137
f 7/5/138 10/10/139 49/49/140 46/46/141
f 10/10/142 12/12/143 50/50/144 49/49/145
f 12/12/146 14/14/147 51/51/148 50/50/149
f 14/14/150 15/15/151 52/52/152 51/51/153
f 15/15/154 17/17/155 53/53/156 52/52/157
f 18/19/158 20/18/159 54/54/160 55/55/161
f 17/17/162 18/19/163 55/55/164 53/53/165
f 23/24/166 22/23/167 56/56/168 57/57/169
f 25/25/170 23/24/171 57/57/172 58/58/173
f 20/18/174 25/25/175 58/58/176 54/54/177
f 22/23/178 26/26/179 59/59/180 56/56/181
f 26/26/182 27/27/183 60/60/184 59/59/185
f 30/30/186 29/29/187 61/61/188 62/62/189
f 27/27/190 30/30/191 62/62/192 60/60/193
g default
v -21.416654 0.125619 12.494634
v -26.533822 0.125619 14.780984
v -26.270643 0.125619 7.096696
v -29.736070 0.125619 11.019556
v -32.912404 0.125619 5.314062
v -29.166625 0.125619 3.343076
v -31.415923 0.125619 -0.507277
v -33.876459 0.125619 1.176862
v 30.368609 0.125619 6.162454
v 34.510359 0.125619 9.655363
v 33.611323 0.125619 0.775560
v 32.017440 0.125619 -3.785536
v 12.884722 0.125619 21.362817
v 10.453107 0.125619 17.177473
v 9.672765 0.125619 22.748353
v 16.310908 0.125619 21.565725
v 16.585019 0.125619 16.691263
v 27.468743 0.125619 17.790006
v 24.860840 0.125619 14.149572
v -5.130949 0.125619 21.964185
v -8.446289 0.125619 28.922815
v -2.553211 0.125619 28.371248
v 0.220788 0.125619 26.480585
v -1.329753 0.125619 22.334089
v 3.641116 0.125619 25.583181
v 1.856399 0.125619 22.644140
v 6.059057 0.125619 22.884962
v 4.543841 0.125619 19.625024
v -12.514800 0.125619 21.245649
v -17.019754 0.125619 23.858293
v -19.273469 0.125619 20.587957
v -20.299896 0.125619 22.220529
v -21.350622 0.125619 18.039484
v -25.846557 0.125619 21.646478
v -10.783035 0.125619 27.920663
v -26.800336 0.125619 -1.883301
v -21.076389 0.125619 -2.372502
v 0.639240 0.125619 19.385938
v -4.019092 0.125619 19.100706
v -13.067937 0.125619 18.546640
v -11.550835 0.125619 11.288263
v -11.064599 0.125619 -3.179087
v -3.836692 0.125619 10.344995
v -3.090867 0.125619 -3.324921
v 1.618336 0.125619 9.677969
v 2.547728 0.125619 -3.428048
v 5.454282 0.125619 9.208917
v 6.512757 0.125619 -3.500561
v 12.064562 0.125619 8.400632
v 13.345480 0.125619 -3.625533
v 19.684584 0.125619 7.468873
v 21.221923 0.125619 -3.769583
v -32.186164 -5.651393 14.482996
v -28.712350 -5.651393 18.563409
v -37.069024 -5.651393 3.805585
v -36.023221 -5.651393 8.293642
v 37.508731 -5.651393 13.003110
v 36.533450 -5.651393 3.370248
v 10.564767 -5.651393 27.206457
v 14.049118 -5.651393 25.703420
v 17.765862 -5.651393 25.923540
v 29.869946 -5.651393 21.827627
v -9.090886 -5.651393 33.904554
v -2.698042 -5.651393 33.306215
v 0.311208 -5.651393 31.255212
v 4.021599 -5.651393 30.281698
v 6.644596 -5.651393 27.354654
v -18.391431 -5.651393 28.410532
v -11.625803 -5.651393 32.817411
v -21.949750 -5.651393 26.633874
v -27.966794 -5.651393 26.011137
v 35.615534 -5.651393 -3.015463
vt 0.122683 0.553461
vt 0.153705 0.503887
vt 0.218695 0.525907
vt 0.168651 0.594917
vt 0.085429 0.672517
vt 0.093633 0.623528
vt 0.139171 0.642408
vt 0.116708 0.689877
vt 0.880188 0.637914
vt 0.832976 0.527902
vt 0.871974 0.480561
vt 0.883674 0.580155
vt 0.571296 0.362474
vt 0.610805 0.373611
vt 0.586944 0.427356
vt 0.650955 0.369563
vt 0.658387 0.426141
vt 0.756933 0.445319
vt 0.782511 0.399866
vt 0.398570 0.396406
vt 0.351265 0.321318
vt 0.417873 0.319116
vt 0.453013 0.334204
vt 0.442306 0.385650
vt 0.493300 0.339588
vt 0.478840 0.376341
vt 0.514886 0.406450
vt 0.528720 0.364017
vt 0.257844 0.386564
vt 0.313276 0.413498
vt 0.235626 0.427977
vt 0.221963 0.409294
vt 0.162417 0.425645
vt 0.214501 0.461006
vt 0.325861 0.334909
vt 0.164056 0.713694
vt 0.240087 0.707615
vt 0.469607 0.416476
vt 0.415444 0.427659
vt 0.310156 0.445660
vt 0.336796 0.528591
vt 0.361373 0.697213
vt 0.429008 0.529309
vt 0.456285 0.688309
vt 0.493931 0.529215
vt 0.523272 0.681801
vt 0.539357 0.529184
vt 0.570361 0.677278
vt 0.617451 0.529793
vt 0.651759 0.669365
vt 0.707373 0.530482
vt 0.746430 0.659208
vt 0.055960 0.501572
vt 0.085411 0.446421
vt 0.009215 0.634663
vt 0.020472 0.580680
vt 0.929557 0.417055
vt 0.955600 0.536308
vt 0.582883 0.275761
vt 0.626228 0.286529
vt 0.671192 0.284282
vt 0.821131 0.323012
vt 0.330355 0.235854
vt 0.408476 0.230577
vt 0.450849 0.244729
vt 0.495845 0.251764
vt 0.536955 0.274777
vt 0.219569 0.305195
vt 0.299720 0.250015
vt 0.179660 0.329885
vt 0.110872 0.357325
vt 0.960564 0.623227
vn 0.000000 1.000000 -0.000000
vn 0.000000 1.000000 -0.000000
vn 0.000000 1.000000 -0.000000
vn 0.000000 1.000000 -0.000000
vn 0.000000 1.000000 -0.000000
vn 0.000000 1.000000 -0.000000
vn 0.000000 1.000000 -0.000000
vn 0.000000 1.000000 -0.000000
vn 0.000000 1.000000 -0.000000
vn 0.000000 1.000000 -0.000000
vn 0.000000 1.000000 -0.000000
vn 0.000000 1.000000 -0.000000
vn -0.000000 1.000000 -0.000000
vn -0.000000 1.000000 -0.000000
vn -0.000000 1.000000 -0.000000
vn -0.000000 1.000000 -0.000000
vn -0.000000 1.000000 -0.000000
vn -0.000000 1.000000 -0.000000
vn -0.000000 1.000000 -0.000000
vn -0.000000 1.000000 -0.000000
vn -0.000000 1.000000 -0.000000
vn -0.000000 1.000000 -0.000000
vn -0.000000 1.000000 -0.000000
vn 0.000000 1.000000 0.000000
vn 0.000000 1.000000 0.000000
vn 0.000000 1.000000 0.000000
vn 0.000000 1.000000 0.000000
vn -0.000000 1.000000 -0.000000
vn -0.000000 1.000000 -0.000000
vn -0.000000 1.000000 -0.000000
vn -0.000000 1.000000 -0.000000
vn -0.000000 1.000000 -0.000000
vn -0.000000 1.000000 -0.000000
vn -0.000000 1.000000 -0.000000
vn -0.000000 1.000000 -0.000000
vn -0.000000 1.000000 -0.000000
vn -0.000000 1.000000 -0.000000
vn -0.000000 1.000000 -0.000000
vn -0.000000 1.000000 -0.000000
vn -0.000000 1.000000 -0.000000
vn -0.000000 1.000000 -0.000000
vn -0.000000 1.000000 -0.000000
vn -0.000000 1.000000 -0.000000
vn -0.000000 1.000000 -0.000000
vn -0.000000 1.000000 -0.000000
vn -0.000000 1.000000 -0.000000
vn -0.000000 1.000000 -0.000000
vn -0.000000 1.000000 -0.000000
vn -0.000000 1.000000 -0.000000
vn -0.000000 1.000000 -0.000000
vn 0.000000 1.000000 -0.000000
vn 0.000000 1.000000 -0.000000
vn 0.000000 1.000000 -0.000000
vn 0.000000 1.000000 -0.000000
vn 0.000000 1.000000 -0.000000
vn 0.000000 1.000000 -0.000000
vn 0.000000 1.000000 -0.000000
vn 0.000000 1.000000 -0.000000
vn 0.000000 1.000000 -0.000000
vn 0.000000 1.000000 -0.000000
vn 0.000000 1.000000 -0.000000
vn 0.000000 1.000000 0.000000
vn 0.000000 1.000000 0.000000
vn 0.000000 1.000000 0.000000
vn 0.000000 1.000000 0.000000
vn 0.000000 1.000000 -0.000000
vn 0.000000 1.000000 -0.000000
vn 0.000000 1.000000 -0.000000
vn 0.000000 1.000000 -0.000000
vn -0.000000 1.000000 -0.000000
vn -0.000000 1.000000 -0.000000
vn -0.000000 1.000000 -0.000000
vn -0.000000 1.000000 -0.000000
vn 0.000000 1.000000 0.000000
vn 0.000000 1.000000 0.000000
vn 0.000000 1.000000 0.000000
vn 0.000000 1.000000 0.000000
vn 0.000000 1.000000 -0.000000
vn 0.000000 1.000000 -0.000000
vn 0.000000 1.000000 -0.000000
vn 0.000000 1.000000 -0.000000
vn 0.000000 1.000000 0.000000
vn 0.000000 1.000000 0.000000
vn 0.000000 1.000000 0.000000
vn 0.000000 1.000000 0.000000
vn 0.000000 1.000000 0.000000
vn 0.000000 1.000000 0.000000
vn 0.000000 1.000000 0.000000
vn 0.000000 1.000000 0.000000
vn 0.000000 1.000000 0.000000
vn 0.000000 1.000000 0.000000
vn 0.000000 1.000000 0.000000
vn 0.000000 1.000000 0.000000
vn 0.000000 1.000000 0.000000
vn 0.000000 1.000000 0.000000
vn 0.000000 1.000000 0.000000
vn 0.000000 1.000000 0.000000
vn 0.000000 1.000000 -0.000000
vn 0.000000 1.000000 -0.000000
vn 0.000000 1.000000 -0.000000
vn 0.000000 1.000000 -0.000000
vn 0.000000 1.000000 -0.000000
vn 0.000000 1.000000 -0.000000
vn 0.000000 1.000000 -0.000000
vn 0.000000 1.000000 -0.000000
vn 0.000000 1.000000 -0.000000
vn 0.000000 1.000000 -0.000000
vn 0.000000 1.000000 -0.000000
vn 0.000000 1.000000 -0.000000
vn 0.000000 1.000000 -0.000000
vn 0.000000 1.000000 -0.000000
vn 0.000000 1.000000 -0.000000
vn 0.000000 1.000000 -0.000000
vn 0.000000 1.000000 -0.000000
vn 0.000000 1.000000 -0.000000
vn 0.000000 1.000000 -0.000000
vn 0.000000 1.000000 -0.000000
vn 0.000000 1.000000 -0.000000
vn 0.000000 1.000000 -0.000000
vn 0.000000 1.000000 -0.000000
vn 0.000000 1.000000 -0.000000
vn -0.000000 1.000000 -0.000000
vn -0.000000 1.000000 -0.000000
vn -0.000000 1.000000 -0.000000
vn -0.000000 1.000000 -0.000000
vn 0.000000 1.000000 0.000000
vn 0.000000 1.000000 0.000000
vn 0.000000 1.000000 0.000000
vn 0.000000 1.000000 0.000000
vn 0.000000 1.000000 0.000000
vn 0.000000 1.000000 0.000000
vn 0.000000 1.000000 0.000000
vn 0.000000 1.000000 0.000000
vn 0.000000 1.000000 0.000000
vn 0.000000 1.000000 0.000000
vn 0.000000 1.000000 0.000000
vn 0.000000 1.000000 0.000000
vn 0.000000 1.000000 0.000000
vn 0.000000 1.000000 0.000000
vn 0.000000 1.000000 0.000000
vn 0.000000 1.000000 0.000000
vn 0.000000 1.000000 0.000000
vn 0.000000 1.000000 0.000000
vn 0.000000 1.000000 0.000000
vn 0.000000 1.000000 0.000000
vn -0.000000 1.000000 -0.000000
vn -0.000000 1.000000 -0.000000
vn -0.000000 1.000000 -0.000000
vn -0.000000 1.000000 -0.000000
vn -0.620403 0.579770 0.528173
vn -0.620403 0.579770 0.528173
vn -0.620403 0.579770 0.528173
vn -0.620403 0.579770 0.528173
vn -0.819744 0.539937 0.191017
vn -0.819744 0.539937 0.191017
vn -0.819744 0.539937 0.191017
vn -0.819744 0.539937 0.191017
vn -0.706419 0.572264 0.416516
vn -0.706419 0.572264 0.416516
vn -0.706419 0.572264 0.416516
vn -0.706419 0.572264 0.416516
vn 0.904554 0.416408 -0.091582
vn 0.904554 0.416408 -0.091582
vn 0.904554 0.416408 -0.091582
vn 0.904554 0.416408 -0.091582
vn 0.313871 0.609964 0.727618
vn 0.313871 0.609964 0.727618
vn 0.313871 0.609964 0.727618
vn 0.313871 0.609964 0.727618
vn -0.047565 0.593870 0.803154
vn -0.047565 0.593870 0.803154
vn -0.047565 0.593870 0.803154
vn -0.047565 0.593870 0.803154
vn 0.250876 0.622432 0.741377
vn 0.250876 0.622432 0.741377
vn 0.250876 0.622432 0.741377
vn 0.250876 0.622432 0.741377
vn 0.598573 0.610932 0.518144
vn 0.598573 0.610932 0.518144
vn 0.598573 0.610932 0.518144
vn 0.598573 0.610932 0.518144
vn 0.071067 0.646846 0.759302
vn 0.071067 0.646846 0.759302
vn 0.071067 0.646846 0.759302
vn 0.071067 0.646846 0.759302
vn 0.463173 0.568906 0.679571
vn 0.463173 0.568906 0.679571
vn 0.463173 0.568906 0.679571
vn 0.463173 0.568906 0.679571
vn 0.197844 0.626310 0.754051
vn 0.197844 0.626310 0.754051
vn 0.197844 0.626310 0.754051
vn 0.197844 0.626310 0.754051
vn 0.640898 0.509315 0.574324
vn 0.640898 0.509315 0.574324
vn 0.640898 0.509315 0.574324
vn 0.640898 0.509315 0.574324
vn 0.029830 0.613548 0.789094
vn 0.029830 0.613548 0.789094
vn 0.029830 0.613548 0.789094
vn 0.029830 0.613548 0.789094
vn -0.428300 0.619834 0.657545
vn -0.428300 0.619834 0.657545
vn -0.428300 0.619834 0.657545
vn -0.428300 0.619834 0.657545
vn -0.346942 0.629921 0.694860
vn -0.346942 0.629921 0.694861
vn -0.346942 0.629921 0.694860
vn -0.346942 0.629921 0.694860
vn -0.080807 0.619556 0.780782
vn -0.080807 0.619556 0.780782
vn -0.080807 0.619556 0.780782
vn -0.080807 0.619556 0.780782
vn -0.910614 0.403078 0.091157
vn -0.910614 0.403078 0.091157
vn -0.910614 0.403078 0.091157
vn -0.910614 0.403078 0.091157
vn -0.302321 0.641620 0.704929
vn -0.302321 0.641620 0.704929
vn -0.302321 0.641620 0.704929
vn -0.302321 0.641620 0.704929
vn 0.877005 0.436312 -0.201233
vn 0.877005 0.436312 -0.201233
vn 0.877004 0.436312 -0.201233
vn 0.877005 0.436312 -0.201233
s off
g Final snowTerrain
f 66/63/194 64/64/195 63/65/196 65/66/197
f 70/67/198 67/68/199 68/69/200 69/70/201
f 67/68/202 66/63/203 65/66/204 68/69/205
f 74/71/206 71/72/207 72/73/208 73/74/209
f 77/75/210 75/76/211 76/77/212
f 75/76/213 78/78/214 79/79/215 76/77/216
f 81/80/217 79/79/218 78/78/219 80/81/220
f 71/72/221 81/80/222 80/81/223 72/73/224
f 82/82/225 83/83/226 84/84/227
f 84/84/228 85/85/229 86/86/230 82/82/231
f 85/85/232 87/87/233 88/88/234 86/86/235
f 90/89/236 88/88/237 87/87/238 89/90/239
f 89/90/240 77/75/241 76/77/242 90/89/243
f 92/91/244 97/97/245 91/92/246
f 91/92/247 93/93/248 94/94/249 92/91/250
f 96/95/251 94/94/252 93/93/253 95/96/254
f 96/95/255 95/96/256 63/65/257 64/64/258
f 91/92/259 97/97/260 83/83/261 82/82/262
f 63/65/263 99/99/264 98/98/265 65/66/266
f 65/66/267 98/98/268 69/70/269 68/69/270
f 103/103/271 104/104/272 99/99/273 63/65/274
f 95/96/275 93/93/276 91/92/277 102/102/278
f 100/100/279 86/86/280 88/88/281 90/89/282
f 101/101/283 82/82/284 86/86/285 100/100/286
f 102/102/287 91/92/288 82/82/289 101/101/290
f 105/105/291 106/106/292 104/104/293 103/103/294
f 107/107/295 108/108/296 106/106/297 105/105/298
f 109/109/299 110/110/300 108/108/301 107/107/302
f 111/111/303 112/112/304 110/110/305 109/109/306
f 113/113/307 114/114/308 112/112/309 111/111/310
f 71/72/311 74/71/312 114/114/313 113/113/314
f 71/72/315 113/113/316 79/79/317 81/80/318
f 103/103/319 63/65/320 95/96/321 102/102/322
f 105/105/323 103/103/324 102/102/325 101/101/326
f 107/107/327 105/105/328 101/101/329 100/100/330
f 109/109/331 107/107/332 100/100/333 90/89/334
f 111/111/335 109/109/336 90/89/337 76/77/338
f 113/113/339 111/111/340 76/77/341 79/79/342
f 64/64/343 66/63/344 115/115/345 116/116/346
f 67/68/347 70/67/348 117/117/349 118/118/350
f 66/63/351 67/68/352 118/118/353 115/115/354
f 73/74/355 72/73/356 119/119/357 120/120/358
f 75/76/359 77/75/360 121/121/361 122/122/362
f 78/78/363 75/76/364 122/122/365 123/123/366
f 80/81/367 78/78/368 123/123/369 124/124/370
f 72/73/371 80/81/372 124/124/373 119/119/374
f 84/84/375 83/83/376 125/125/377 126/126/378
f 85/85/379 84/84/380 126/126/381 127/127/382
f 87/87/383 85/85/384 127/127/385 128/128/386
f 89/90/387 87/87/388 128/128/389 129/129/390
f 77/75/391 89/90/392 129/129/393 121/121/394
f 97/97/395 92/91/396 130/130/397 131/131/398
f 92/91/399 94/94/400 132/132/401 130/130/402
f 94/94/403 96/95/404 133/133/405 132/132/406
f 96/95/407 64/64/408 116/116/409 133/133/410
f 83/83/411 97/97/412 131/131/413 125/125/414
f 73/74/415 120/120/416 134/134/417 74/71/418
