# This file uses centimeters as units for non-parametric coordinates.

mtllib rock1.mtl
g default
v -0.725924 2.154107 0.308641
v -0.521435 1.120127 0.813442
v -0.203627 1.733305 0.934825
v -0.444245 2.440869 0.470475
v -0.481142 0.926577 -0.704082
v -0.717539 2.149052 -0.262256
v -0.327518 2.521980 -0.437014
v -0.194239 1.035508 -0.882233
v 0.063621 0.978307 -0.915405
v 0.617049 2.240624 -0.589147
v 1.130986 1.264037 0.185618
v 0.796045 2.246953 -0.396717
v 0.926262 1.917592 0.420395
v 0.726684 2.448995 0.098853
v 0.612919 1.399347 0.947666
v 0.784037 1.451050 0.849146
v -0.390447 0.396692 0.703942
v 0.875044 1.297355 0.770001
v -0.344895 0.025340 0.017572
v 0.447481 0.105909 -0.329270
v 0.364509 -0.029525 -0.181822
v 0.870234 0.338499 0.120872
v 0.735643 1.093070 0.895396
v 0.559606 0.357652 0.730726
v 0.701181 0.185583 0.344600
v -0.731045 2.150122 0.054298
v -0.533290 1.028597 0.137480
v -0.375024 0.136344 0.438621
v -0.168113 -0.007350 0.440897
v -0.116376 0.118979 0.647399
v -0.357200 2.543356 0.007402
v 0.457194 2.484148 -0.505795
v 0.720680 2.460366 -0.264001
v 0.529527 -0.012093 0.026685
v 0.589655 0.175009 -0.190801
v 0.406434 1.065251 -0.582361
vt 0.478190 0.861739
vt 0.616531 0.678167
vt 0.714616 0.775365
vt 0.522635 0.886647
vt 0.422078 0.829092
vt 0.493969 0.558424
vt 0.782466 0.580764
vt 0.787596 0.651842
vt 0.525687 0.972263
vt 0.710348 0.913839
vt 0.423227 0.954954
vt 0.341410 0.913293
vt 0.166711 0.561246
vt 0.736473 0.503764
vt 0.824890 0.554532
vt 0.848310 0.607234
vt 0.750598 0.458935
vt 0.684588 0.363294
vt 0.727163 0.252471
vt 0.829948 0.415939
vt 0.623940 0.248000
vt 0.603862 0.273558
vt 0.901772 0.212186
vt 0.874250 0.418015
vt 0.813993 0.455637
vt 0.596990 0.206359
vt 0.750429 0.099179
vt 0.570491 0.260795
vt 0.815292 0.063363
vt 0.982553 0.193538
vt 0.874021 0.469851
vt 0.640405 0.074819
vt 0.716705 0.061207
vt 0.781869 0.024639
vt 0.847191 0.047315
vt 0.827988 0.013971
vt 0.584702 0.465540
vt 0.424707 0.552280
vt 0.362194 0.470538
vt 0.604897 0.385333
vt 0.286498 0.388971
vt 0.560064 0.314546
vt 0.252187 0.188840
vt 0.540865 0.165221
vt 0.398213 0.046946
vt 0.445227 0.049841
vt 0.050406 0.273270
vt 0.219958 0.248415
vt 0.235025 0.188906
vt 0.048800 0.167123
vt 0.089284 0.539280
vt 0.242393 0.094239
vt 0.041147 0.110541
vt 0.224518 0.544297
vt 0.251337 0.287757
vt 0.177346 0.014572
vt 0.344955 0.849145
vt 0.904552 0.917456
vt 0.967270 0.699339
vt 0.949511 0.863116
vt 0.015906 0.837371
vt 0.122734 0.915296
vt 0.305825 0.907451
vn -0.669594 0.223097 0.708429
vn -0.669594 0.223097 0.708429
vn -0.669594 0.223097 0.708429
vn -0.669594 0.223097 0.708429
vn -0.984484 -0.175265 -0.008544
vn -0.984486 -0.175262 -0.008426
vn -0.984116 -0.173880 0.035810
vn -0.984116 -0.173880 0.035810
vn -0.556390 0.189024 -0.809135
vn -0.556390 0.189024 -0.809135
vn -0.556390 0.189024 -0.809135
vn -0.556390 0.189024 -0.809135
vn -0.068944 0.279331 -0.957716
vn -0.068944 0.279332 -0.957716
vn -0.068944 0.279332 -0.957716
vn -0.068944 0.279331 -0.957716
vn 0.735911 -0.138514 -0.662759
vn 0.735911 -0.138514 -0.662759
vn 0.726074 -0.135818 -0.674070
vn 0.734047 -0.138002 -0.664929
vn 0.946688 0.321446 -0.021298
vn 0.946688 0.321446 -0.021298
vn 0.946688 0.321446 -0.021298
vn 0.946688 0.321446 -0.021298
vn 0.249926 0.580406 0.775027
vn 0.249926 0.580406 0.775027
vn 0.249926 0.580406 0.775027
vn 0.249926 0.580406 0.775027
vn 0.241223 0.616607 0.749405
vn 0.241223 0.616607 0.749405
vn 0.241223 0.616607 0.749405
vn 0.241223 0.616607 0.749405
vn -0.077269 -0.159211 0.984216
vn -0.077269 -0.159211 0.984216
vn -0.077269 -0.159211 0.984216
vn -0.077269 -0.159211 0.984216
vn 0.892421 0.163375 0.420587
vn 0.892421 0.163375 0.420587
vn 0.892421 0.163375 0.420587
vn 0.892421 0.163375 0.420587
vn -0.983807 -0.169075 0.059475
vn -0.984224 -0.176911 -0.002547
vn -0.984194 -0.177055 -0.003737
vn -0.983807 -0.169075 0.059475
vn -0.252908 -0.617584 -0.744733
vn -0.252908 -0.617584 -0.744733
vn -0.252908 -0.617584 -0.744733
vn -0.252908 -0.617584 -0.744733
vn -0.247167 -0.623687 -0.741568
vn -0.247167 -0.623687 -0.741568
vn -0.247167 -0.623687 -0.741568
vn -0.247167 -0.623687 -0.741568
vn 0.748150 -0.148347 -0.646734
vn 0.748150 -0.148347 -0.646734
vn 0.737633 -0.148903 -0.658578
vn 0.734411 -0.149064 -0.662133
vn 0.568612 0.029342 0.822083
vn 0.568612 0.029342 0.822083
vn 0.568612 0.029342 0.822083
vn 0.568612 0.029342 0.822083
vn 0.865070 -0.284194 0.413385
vn 0.865070 -0.284194 0.413385
vn 0.865070 -0.284194 0.413385
vn 0.865070 -0.284194 0.413385
vn 0.846333 -0.299490 0.440484
vn 0.846333 -0.299490 0.440484
vn 0.846333 -0.299490 0.440484
vn 0.846333 -0.299490 0.440484
vn -0.041665 -0.201661 0.978569
vn -0.041665 -0.201661 0.978569
vn -0.041665 -0.201661 0.978569
vn -0.041665 -0.201661 0.978569
vn -0.983566 -0.176041 -0.040088
vn -0.983566 -0.176041 -0.040088
vn -0.982988 -0.180574 -0.033589
vn -0.982988 -0.180574 -0.033589
vn -0.563118 -0.808118 0.172756
vn -0.563118 -0.808118 0.172756
vn -0.563118 -0.808118 0.172756
vn -0.503943 -0.648633 0.570365
vn -0.503943 -0.648633 0.570365
vn -0.503943 -0.648633 0.570365
vn -0.503943 -0.648633 0.570365
vn -0.037016 -0.234321 0.971454
vn -0.037016 -0.234321 0.971454
vn -0.037016 -0.234321 0.971454
vn -0.715630 0.695798 -0.061138
vn -0.715630 0.695798 -0.061138
vn -0.715630 0.695799 -0.061138
vn -0.715630 0.695798 -0.061138
vn -0.720964 0.692854 0.012800
vn -0.720964 0.692854 0.012800
vn -0.720964 0.692854 0.012800
vn -0.720964 0.692854 0.012800
vn -0.070317 0.281403 -0.957010
vn -0.070317 0.281403 -0.957010
vn -0.070317 0.281403 -0.957010
vn 0.585568 0.572710 -0.573684
vn 0.585568 0.572710 -0.573684
vn 0.585568 0.572710 -0.573684
vn 0.585568 0.572710 -0.573684
vn 0.941926 0.335782 -0.005063
vn 0.941926 0.335782 -0.005063
vn 0.941926 0.335782 -0.005063
vn 0.061544 0.997952 -0.017471
vn 0.061544 0.997952 -0.017471
vn 0.061544 0.997952 -0.017471
vn 0.061544 0.997952 -0.017471
vn 0.073829 0.986922 0.143296
vn 0.073829 0.986922 0.143296
vn 0.073829 0.986922 0.143296
vn 0.073829 0.986922 0.143296
vn 0.728571 -0.670818 -0.138516
vn 0.707008 -0.680299 -0.193219
vn 0.694044 -0.684494 -0.223092
vn 0.728571 -0.670818 -0.138516
vn 0.615940 -0.694349 -0.372153
vn 0.615940 -0.694349 -0.372153
vn 0.713580 -0.150005 -0.684326
vn 0.713580 -0.150005 -0.684326
vn 0.707696 -0.130821 -0.694300
vn -0.042759 -0.999085 -0.000995
vn -0.042759 -0.999085 -0.000995
vn -0.042759 -0.999085 -0.000995
vn -0.042759 -0.999085 -0.000995
vn 0.240756 -0.868217 0.433861
vn 0.240756 -0.868217 0.433861
vn 0.240756 -0.868217 0.433861
vn 0.240756 -0.868217 0.433861
vn 0.242462 -0.849992 0.467681
vn 0.242462 -0.849992 0.467681
vn 0.242462 -0.849992 0.467681
s off
g rock3Low
usemtl initialShadingGroup
f 4/9/1 1/4/2 2/3/3 3/10/4
s 1
f 26/1/5 27/2/6 2/3/7 1/4/8
s off
f 5/51/9 6/61/10 7/62/11 8/13/12
f 10/57/13 9/54/14 8/13/15 7/62/16
s 2
f 12/20/17 11/19/18 36/23/19 10/24/20
s off
f 14/17/21 13/18/22 11/19/23 12/20/24
f 14/42/25 4/41/26 3/43/27 13/44/28
f 3/43/29 15/45/30 16/46/31 13/44/32
f 17/8/33 15/58/34 3/10/35 2/3/36
f 18/21/37 11/19/38 13/18/39 16/22/40
s 3
f 2/3/41 27/2/42 28/7/43 17/8/44
s off
f 9/54/45 20/55/46 21/48/47 8/13/48
f 19/47/49 5/51/50 8/13/51 21/48/52
s 4
f 11/19/53 22/27/54 35/29/55 36/23/56
s off
f 18/21/57 16/22/58 15/28/59 23/26/60
f 11/19/61 18/21/62 23/26/63 22/27/64
f 23/26/65 24/32/66 25/33/67 22/27/68
f 24/59/69 23/60/70 15/58/71 17/8/72
s 1
f 6/5/73 5/6/74 27/2/6 26/1/5
s 3
f 28/7/43 27/2/42 5/6/75 19/14/76
s off
f 19/14/77 29/15/78 28/7/79
f 17/8/80 28/7/81 29/15/82 30/16/83
f 30/16/84 24/59/85 17/8/86
f 26/1/87 31/11/88 7/12/89 6/5/90
f 31/11/91 26/1/92 1/4/93 4/9/94
f 32/63/95 10/57/96 7/62/97
f 12/20/98 10/24/99 32/31/100 33/25/101
f 33/25/102 14/17/103 12/20/104
f 32/37/105 7/38/106 31/39/107 33/40/108
f 33/40/109 31/39/110 4/41/111 14/42/112
s 5
f 25/33/113 34/34/114 35/29/115 22/27/116
f 35/29/115 34/34/114 21/36/117 20/35/118
s 4
f 36/23/56 35/29/55 20/35/119 9/30/120
s 2
f 10/24/20 36/23/19 9/30/121
s off
f 19/47/122 21/48/123 34/49/124 29/50/125
f 29/50/126 34/49/127 25/52/128 30/53/129
f 24/56/130 30/53/131 25/52/132
